<?xml version="1.0" encoding="utf-8"?>
<svg xmlns="http://www.w3.org/2000/svg" viewBox="0 0 32.2 20.3" xml:space="preserve">
    <defs>
        <g id="arrow-down"><path d="M31.44,2.31,29.89.76A2.65,2.65,0,0,0,28,0a2.53,2.53,0,0,0-1.86.76l-10,10.05-10-10A2.57,2.57,0,0,0,4.2,0,2.7,2.7,0,0,0,2.31.76L.79,2.32A2.54,2.54,0,0,0,0,4.2,2.45,2.45,0,0,0,.79,6.06L14.24,19.51a2.45,2.45,0,0,0,1.86.79A2.54,2.54,0,0,0,18,19.51L31.44,6.06A2.53,2.53,0,0,0,32.2,4.2,2.66,2.66,0,0,0,31.44,2.31Z"/></g>
        <g id='arrow-up'><path d="M.76,18l1.55,1.55a2.65,2.65,0,0,0,1.89.76,2.54,2.54,0,0,0,1.86-.76l10-10,10,10A2.58,2.58,0,0,0,28,20.3a2.73,2.73,0,0,0,1.89-.76L31.41,18a2.56,2.56,0,0,0,.79-1.88,2.44,2.44,0,0,0-.79-1.86L18,.79A2.44,2.44,0,0,0,16.1,0a2.51,2.51,0,0,0-1.9.79L.76,14.24A2.54,2.54,0,0,0,0,16.1,2.65,2.65,0,0,0,.76,18Z"/></g>
        <g id='arrow-right'><path d="M8.26-5.19,6.71-3.64A2.61,2.61,0,0,0,6-1.75,2.54,2.54,0,0,0,6.71.11l10.05,10-10,10A2.58,2.58,0,0,0,6,22.05a2.73,2.73,0,0,0,.76,1.89l1.56,1.52a2.56,2.56,0,0,0,1.88.79A2.44,2.44,0,0,0,12,25.46L25.46,12a2.44,2.44,0,0,0,.79-1.86,2.51,2.51,0,0,0-.79-1.9L12-5.19a2.54,2.54,0,0,0-1.86-.76A2.65,2.65,0,0,0,8.26-5.19Z" transform="translate(-5.95 5.95)"/></g>
        <g id='arrow-left'><path d="M23.94,25.49l1.55-1.55a2.65,2.65,0,0,0,.76-1.89,2.54,2.54,0,0,0-.76-1.86l-10-10,10-10a2.58,2.58,0,0,0,.81-1.94,2.71,2.71,0,0,0-.76-1.89L23.93-5.16a2.56,2.56,0,0,0-1.88-.79,2.44,2.44,0,0,0-1.86.79L6.74,8.29A2.44,2.44,0,0,0,6,10.15a2.51,2.51,0,0,0,.79,1.9L20.19,25.49a2.54,2.54,0,0,0,1.86.76A2.65,2.65,0,0,0,23.94,25.49Z" transform="translate(-5.95 5.95)"/></g>
    </defs>
</svg>