<?xml version="1.0" encoding="utf-8"?>
<svg xmlns="http://www.w3.org/2000/svg" viewBox="0 0 20 20" xml:space="preserve">
    <defs>
        <g id='minus'><path d="M10,0A10,10,0,1,0,20,10,10,10,0,0,0,10,0Zm0,18.45A8.45,8.45,0,1,1,18.45,10,8.46,8.46,0,0,1,10,18.45Z"/><path d="M13.87,9.16H6.13a.77.77,0,1,0,0,1.54h7.74a.77.77,0,1,0,0-1.54Z"/></g>
        <g id='plus'><path d="M10,0A10,10,0,1,0,20,10,10,10,0,0,0,10,0Zm0,18.45A8.45,8.45,0,1,1,18.45,10,8.46,8.46,0,0,1,10,18.45Z"/><path d="M13.87,9.16h-3.1V6.06a.77.77,0,1,0-1.54,0v3.1H6.13a.77.77,0,1,0,0,1.54h3.1v3.1a.77.77,0,1,0,1.54,0V10.7h3.1a.77.77,0,1,0,0-1.54Z"/></g>
    </defs>
</svg>