<?xml version="1.0" encoding="utf-8"?>
<svg version="1.1" xmlns="http://www.w3.org/2000/svg" xmlns:xlink="http://www.w3.org/1999/xlink" x="0px" y="0px"
     viewBox="0 0 53 53" style="enable-background:new 0 0 53 53;" xml:space="preserve">
	<path class="fill" opacity="0.2" fill="#000000" d="M26.5,4c6.2,0,11.8,2.5,15.9,6.6l2.8-2.8C40.4,3,33.8,0,26.5,0S12.6,3,7.8,7.7l2.8,2.8C14.7,6.5,20.3,4,26.5,4
		z"/>
    <path class="fill" opacity="0.2" fill="#000000" d="M4,26.5c0-2,0.3-4,0.8-5.8l-3.9-1C0.3,21.8,0,24.1,0,26.5c0,12.3,8.3,22.6,19.6,25.6l1-3.9
		C11.1,45.6,4,36.9,4,26.5z"/>
    <path class="fill" opacity="0.2" fill="#000000" d="M48.2,20.7c0.5,1.9,0.8,3.8,0.8,5.8c0,10.4-7.1,19.1-16.7,21.7l1,3.9C44.7,49.1,53,38.8,53,26.5
		c0-2.4-0.3-4.7-0.9-6.8L48.2,20.7z"/>
    <path class="fill" opacity="0.4" fill="#000000" d="M11.3,11.3l2.8,2.8C17.3,11,21.7,9,26.5,9s9.2,2,12.4,5.1l2.8-2.8C37.8,7.4,32.4,5,26.5,5
		C20.6,5,15.2,7.4,11.3,11.3z"/>
    <path class="fill" opacity="0.4" fill="#000000" d="M9,26.5c0-1.6,0.2-3.1,0.6-4.5l-3.9-1C5.3,22.7,5,24.6,5,26.5c0,9.9,6.8,18.3,15.9,20.7l1-3.9
		C14.5,41.4,9,34.6,9,26.5z"/>
    <path class="fill" opacity="0.2" fill="#000000" d="M44,26.5c0,8.1-5.5,14.9-13,16.9l1,3.9C41.2,44.8,48,36.4,48,26.5c0-1.9-0.3-3.8-0.8-5.5l-3.9,1
		C43.8,23.4,44,24.9,44,26.5z"/>
    <circle class="fill" fill="#000000" cx="26.5" cy="26.5" r="16.5"/>
    <path fill="#ffffff" d="M26.5,39C19.6,39,14,33.4,14,26.5S19.6,14,26.5,14S39,19.6,39,26.5S33.4,39,26.5,39z"/>
</svg>
