<svg width="20" height="18" viewBox="0 0 20 18" fill="none" xmlns="http://www.w3.org/2000/svg">
<path d="M3.33333 8.16669C3.83333 8.16669 4.16667 7.83335 4.16667 7.33335V1.50002C4.16667 1.00002 3.83333 0.666687 3.33333 0.666687C2.83333 0.666687 2.5 1.00002 2.5 1.50002V7.33335C2.5 7.83335 2.83333 8.16669 3.33333 8.16669Z" fill="white"/>
<path d="M10.0003 8.16669C9.50033 8.16669 9.16699 8.50002 9.16699 9.00002V16.5C9.16699 17 9.50033 17.3334 10.0003 17.3334C10.5003 17.3334 10.8337 17 10.8337 16.5V9.00002C10.8337 8.50002 10.5003 8.16669 10.0003 8.16669Z" fill="white"/>
<path d="M16.6663 9.83335C17.1663 9.83335 17.4997 9.50002 17.4997 9.00002V1.50002C17.4997 1.00002 17.1663 0.666687 16.6663 0.666687C16.1663 0.666687 15.833 1.00002 15.833 1.50002V9.00002C15.833 9.50002 16.1663 9.83335 16.6663 9.83335Z" fill="white"/>
<path d="M5.83333 9.83336H0.833333C0.333333 9.83336 0 10.1667 0 10.6667C0 11.1667 0.333333 11.5 0.833333 11.5H2.5V16.5C2.5 17 2.83333 17.3334 3.33333 17.3334C3.83333 17.3334 4.16667 17 4.16667 16.5V11.5H5.83333C6.33333 11.5 6.66667 11.1667 6.66667 10.6667C6.66667 10.1667 6.33333 9.83336 5.83333 9.83336Z" fill="white"/>
<path d="M12.5003 4.83335H10.8337V1.50002C10.8337 1.00002 10.5003 0.666687 10.0003 0.666687C9.50033 0.666687 9.16699 1.00002 9.16699 1.50002V4.83335H7.50033C7.00033 4.83335 6.66699 5.16669 6.66699 5.66669C6.66699 6.16669 7.00033 6.50002 7.50033 6.50002H12.5003C13.0003 6.50002 13.3337 6.16669 13.3337 5.66669C13.3337 5.16669 13.0003 4.83335 12.5003 4.83335Z" fill="white"/>
<path d="M19.1663 11.5H14.1663C13.6663 11.5 13.333 11.8333 13.333 12.3333C13.333 12.8333 13.6663 13.1667 14.1663 13.1667H15.833V16.5C15.833 17 16.1663 17.3333 16.6663 17.3333C17.1663 17.3333 17.4997 17 17.4997 16.5V13.1667H19.1663C19.6663 13.1667 19.9997 12.8333 19.9997 12.3333C19.9997 11.8333 19.6663 11.5 19.1663 11.5Z" fill="white"/>
</svg>
