<svg width="95" height="93" viewBox="0 0 95 93" fill="none" xmlns="http://www.w3.org/2000/svg">
<path d="M93.7628 17.6527L48.1552 0.824292C47.7323 0.668433 47.2677 0.668433 46.845 0.824292L1.23741 17.6527L1.23704 17.6541C1.08768 17.7094 0.944063 17.7825 0.810469 17.8755C0.302627 18.2295 0 18.8093 0 19.4281V73.5718C0 74.3643 0.49374 75.0729 1.23723 75.3473L46.8448 92.1757C47.0575 92.2542 47.2792 92.2926 47.4998 92.2926C47.7227 92.2926 47.9444 92.2521 48.1544 92.1746L48.1552 92.1757L93.7628 75.3473C94.5063 75.0729 95 74.3645 95 73.5718V19.4281C95 18.6355 94.5063 17.9271 93.7628 17.6527ZM45.6076 87.6849L3.78479 72.253V22.1436L12.3006 25.2861V48.2156C12.3006 49.008 12.7944 49.7166 13.5379 49.9911L33.976 57.5326C34.1887 57.6111 34.4104 57.6495 34.631 57.6495C35.0129 57.6495 35.3914 57.5339 35.7133 57.3096C36.221 56.9557 36.5236 56.3759 36.5236 55.7571V34.2238L45.6072 37.5756V87.6849H45.6076ZM32.739 32.8272V53.0413L16.0856 46.8963V26.6823L32.739 32.8272ZM19.66 23.9518L34.6314 18.4275L49.6028 23.9518L34.6314 29.4761L19.66 23.9518ZM47.5 34.2394L40.0779 31.5008L55.7249 25.7271C56.4684 25.4527 56.9622 24.7443 56.9622 23.9516C56.9622 23.1589 56.4684 22.4505 55.7249 22.1761L35.2866 14.6347C34.8637 14.4789 34.3993 14.4789 33.9762 14.6347L14.1726 21.9423L7.35935 19.4281L47.5 4.61706L87.6407 19.4283L47.5 34.2394ZM91.2152 72.253L49.3926 87.6847V37.5756L91.2152 22.1436V72.253Z" fill="#F2F2F2"/>
</svg>
