<svg width="60" height="60" viewBox="0 0 60 60" fill="none" xmlns="http://www.w3.org/2000/svg" preserveAspectRatio="xMidYMid meet">
<rect width="30" height="30" fill="black" fill-opacity="0" transform="scale(2)"/>
<rect width="60" height="60" rx="5" fill="#EE2A23"/>
<path d="M30.0029 12C32.547 12 33.3464 13.7572 34.0172 15.5116C34.2989 16.2566 40.9103 33.6906 41.109 34.2139C41.162 34.3599 41.1262 34.5995 40.8931 34.6863C40.6586 34.7716 37.2235 36.0578 37.0333 36.1267C36.843 36.1969 36.63 36.095 36.5613 35.9119C36.4898 35.7315 35.064 31.9307 34.9038 31.5065H25.1048C24.9503 31.9307 23.5073 35.7397 23.443 35.9119C23.3772 36.0868 23.1727 36.2052 22.9696 36.1267C22.7665 36.0496 19.3186 34.7634 19.1126 34.6863C18.9153 34.6119 18.8252 34.3957 18.8938 34.2139C19.1369 33.5612 25.6482 16.4067 25.98 15.5116C26.6264 13.7833 27.453 12 30.0029 12ZM18.3704 43.1953C18.1645 43.1953 18 43.3606 18 43.5616V47.6364C18 47.8375 18.1645 48 18.3704 48H41.6253C41.8355 48 42 47.8375 42 47.6364V43.5616C42 43.3606 41.8355 43.1953 41.6253 43.1953H18.3704ZM29.98 17.6929L26.6679 27.2706H33.3464L30.0229 17.6929H29.98Z" fill="white"/>
</svg>
