<svg width="35" height="50" viewBox="0 0 35 50" fill="none" xmlns="http://www.w3.org/2000/svg" preserveAspectRatio="xMidYMid meet">
<rect width="35" height="50" fill="black" fill-opacity="0"/>
<path d="M17.5 48.4815C17.0274 47.9322 16.3524 47.1333 15.5424 46.1343C13.9146 44.1267 11.7459 41.3164 9.57909 38.1034C7.41041 34.8875 5.25606 31.2864 3.64693 27.6957C2.03187 24.0918 1 20.5724 1 17.5C1 8.35229 8.35229 1 17.5 1C26.6477 1 34 8.35228 34 17.5C34 20.5724 32.9681 24.0918 31.3531 27.6957C29.7439 31.2864 27.5896 34.8875 25.4209 38.1034C23.2542 41.3164 21.0854 44.1267 19.4576 46.1343C18.6476 47.1333 17.9726 47.9322 17.5 48.4815Z" fill="white" stroke="#E22020" stroke-width="2"/>
<rect width="20.9562" height="23.9915" fill="black" fill-opacity="0" transform="translate(5 5.50854)"/>
<path d="M22.1001 29.5C22.1001 29.5 26.5001 19.2 25.9001 10.5C25.2001 1.70004 14.3001 2.70004 10.1001 28.6C10.1001 28.6 11.4001 20 16.9001 13C22.4001 6.00004 26.7001 13.5 22.1001 29.5Z" fill="#E22020"/>
<path d="M23.4 18.4001H9V21.5001H23.4V18.4001Z" fill="#E22020"/>
<path d="M21.1 22.7C21.4314 22.7 21.7 22.4314 21.7 22.1C21.7 21.7686 21.4314 21.5 21.1 21.5C20.7686 21.5 20.5 21.7686 20.5 22.1C20.5 22.4314 20.7686 22.7 21.1 22.7Z" fill="#E22020"/>
<path d="M22.2001 22.7C22.5315 22.7 22.8001 22.4314 22.8001 22.1C22.8001 21.7686 22.5315 21.5 22.2001 21.5C21.8687 21.5 21.6001 21.7686 21.6001 22.1C21.6001 22.4314 21.8687 22.7 22.2001 22.7Z" fill="#E22020"/>
<path d="M22.8 21.5H20.5V22.1H22.8V21.5Z" fill="#E22020"/>
<path d="M10.8998 22.7C11.2312 22.7 11.4998 22.4314 11.4998 22.1C11.4998 21.7686 11.2312 21.5 10.8998 21.5C10.5684 21.5 10.2998 21.7686 10.2998 22.1C10.2998 22.4314 10.5684 22.7 10.8998 22.7Z" fill="#E22020"/>
<path d="M5.99991 22.7C6.33128 22.7 6.59991 22.4314 6.59991 22.1C6.59991 21.7686 6.33128 21.5 5.99991 21.5C5.66854 21.5 5.3999 21.7686 5.3999 22.1C5.3999 22.4314 5.66854 22.7 5.99991 22.7Z" fill="#E22020"/>
<path d="M11.9999 22.7C12.3313 22.7 12.5999 22.4314 12.5999 22.1C12.5999 21.7686 12.3313 21.5 11.9999 21.5C11.6685 21.5 11.3999 21.7686 11.3999 22.1C11.3999 22.4314 11.6685 22.7 11.9999 22.7Z" fill="#E22020"/>
<path d="M12.5998 21.5H10.2998V22.1H12.5998V21.5Z" fill="#E22020"/>
<path d="M10.3001 21.5H5.1001V22.1H10.3001V21.5Z" fill="#E22020"/>
<path d="M8.20001 21.5001V19.4001H7.20001C7.00001 19.4001 6.89999 19.5001 6.79999 19.6001L6.60001 20.0001C6.50001 20.1001 6.40001 20.2001 6.20001 20.2001H5.5C5.4 20.2001 5.30001 20.3001 5.20001 20.3001L5.10001 20.4001C5.00001 20.5001 5 20.6001 5 20.7001V21.4001H8.20001V21.5001Z" fill="#E22020"/>
</svg>
