<svg width="30" height="30" viewBox="0 0 30 30" fill="none" xmlns="http://www.w3.org/2000/svg" preserveAspectRatio="xMidYMid meet">
<rect width="30" height="30" rx="5" fill="#F7931A"/>
<path d="M21.4485 15.4924C20.9984 14.8916 20.3191 14.4789 19.4108 14.2546C20.5675 13.6456 21.0758 12.6119 20.9363 11.1534C20.8896 10.6245 20.748 10.1662 20.5111 9.77763C20.2741 9.38902 19.9543 9.0766 19.5504 8.84026C19.1468 8.60363 18.7078 8.42349 18.2346 8.2993C17.7611 8.17511 17.2176 8.08493 16.6044 8.0289V5H14.8114V7.94474C14.501 7.94474 14.0275 7.95274 13.391 7.96878V5H11.5978V8.0289C11.3416 8.03694 10.9652 8.04102 10.4684 8.04102L8 8.0289V10.0001H9.29235C9.88231 10.0001 10.2277 10.2726 10.3286 10.8174V14.267C10.4064 14.267 10.4684 14.2712 10.515 14.2792H10.3286V19.1108C10.2666 19.5193 10.0415 19.7238 9.65336 19.7238H8.36109L8.00008 21.9234H10.3288C10.4763 21.9234 10.6897 21.9254 10.9692 21.929C11.2486 21.9331 11.4581 21.9351 11.5979 21.9351V25H13.3914V21.9711C13.7173 21.9794 14.1908 21.9833 14.8118 21.9833V25H16.6048V21.9351C17.2415 21.9031 17.8061 21.8433 18.2988 21.7549C18.7918 21.6664 19.2635 21.5284 19.7136 21.34C20.1636 21.1518 20.5401 20.9173 20.8428 20.6368C21.1456 20.3566 21.3957 19.9999 21.594 19.5671C21.7916 19.1343 21.9179 18.6335 21.9721 18.0645C22.0734 16.951 21.8987 16.0935 21.4485 15.4924ZM13.4259 10.132C13.4803 10.132 13.6336 10.1299 13.8858 10.1259C14.1382 10.1218 14.3477 10.1178 14.5146 10.1138C14.6815 10.1098 14.9067 10.1198 15.1901 10.1439C15.4734 10.1679 15.7121 10.2 15.9061 10.24C16.1001 10.28 16.3137 10.3462 16.5464 10.4383C16.7795 10.5304 16.9656 10.6426 17.1052 10.7748C17.245 10.907 17.3634 11.0754 17.4603 11.2797C17.5574 11.484 17.6059 11.7184 17.6059 11.9827C17.6059 12.2071 17.5711 12.4115 17.5013 12.5959C17.4316 12.7802 17.3266 12.9345 17.187 13.0587C17.0474 13.1829 16.9035 13.2912 16.756 13.3832C16.6087 13.4753 16.4203 13.5495 16.1914 13.6055C15.9625 13.6616 15.7626 13.7057 15.5919 13.7377C15.4211 13.7698 15.2077 13.7919 14.9515 13.8038C14.6953 13.8158 14.5012 13.824 14.3693 13.8279C14.2373 13.8319 14.0568 13.8319 13.8278 13.8279C13.5987 13.824 13.4649 13.8219 13.426 13.8219V10.1319H13.4259V10.132ZM18.3222 18.317C18.2483 18.5014 18.1534 18.6618 18.037 18.7981C17.9204 18.9341 17.7671 19.0544 17.577 19.1584C17.3869 19.2627 17.2024 19.3467 17.024 19.4108C16.8454 19.4752 16.6299 19.531 16.3779 19.5792C16.1252 19.6274 15.9042 19.6612 15.7138 19.6814C15.5237 19.7014 15.2967 19.7174 15.0327 19.7295C14.7689 19.7413 14.5631 19.7474 14.4156 19.7474C14.2681 19.7474 14.0818 19.7452 13.8567 19.7413C13.6314 19.7376 13.488 19.7355 13.4258 19.7355V15.6728C13.4878 15.6728 13.6722 15.6689 13.9789 15.6608C14.2856 15.6527 14.5358 15.6489 14.7299 15.6489C14.924 15.6489 15.1919 15.6608 15.5335 15.685C15.8749 15.7088 16.1621 15.7447 16.3952 15.7928C16.628 15.841 16.882 15.915 17.1578 16.0153C17.4333 16.1154 17.6565 16.2375 17.8274 16.3818C17.9982 16.5263 18.1417 16.7103 18.2581 16.9347C18.3748 17.159 18.433 17.4155 18.433 17.704C18.4329 17.9286 18.3961 18.1326 18.3222 18.317Z" fill="white"/>
</svg>
