<svg width="35" height="50" viewBox="0 0 35 50" fill="none" xmlns="http://www.w3.org/2000/svg" preserveAspectRatio="xMidYMid meet">
<rect width="35" height="50" fill="black" fill-opacity="0"/>
<path d="M17.5 48.4815C17.0274 47.9322 16.3524 47.1333 15.5424 46.1343C13.9146 44.1267 11.7459 41.3164 9.57909 38.1034C7.41041 34.8875 5.25606 31.2864 3.64693 27.6957C2.03187 24.0918 1 20.5724 1 17.5C1 8.35229 8.35229 1 17.5 1C26.6477 1 34 8.35228 34 17.5C34 20.5724 32.9681 24.0918 31.3531 27.6957C29.7439 31.2864 27.5896 34.8875 25.4209 38.1034C23.2542 41.3164 21.0854 44.1267 19.4576 46.1343C18.6476 47.1333 17.9726 47.9322 17.5 48.4815Z" fill="white" stroke="#ED1651" stroke-width="2"/>
<rect width="22.4" height="22.4" fill="black" fill-opacity="0" transform="translate(6.2998 6.30005)"/>
<rect width="22.4" height="22.4" fill="black" fill-opacity="0" transform="translate(6.2998 6.30005)"/>
<path d="M8.89981 20.1001C10.3357 20.1001 11.4998 18.9361 11.4998 17.5001C11.4998 16.0642 10.3357 14.9001 8.89981 14.9001C7.46387 14.9001 6.2998 16.0642 6.2998 17.5001C6.2998 18.9361 7.46387 20.1001 8.89981 20.1001Z" fill="#ED1651"/>
<path d="M13.1996 24.4C14.6356 24.4 15.7996 23.2359 15.7996 21.7999C15.7996 20.364 14.6356 19.2 13.1996 19.2C11.7637 19.2 10.5996 20.364 10.5996 21.7999C10.5996 23.2359 11.7637 24.4 13.1996 24.4Z" fill="#ED1651"/>
<path d="M17.4999 28.7C18.9358 28.7 20.0999 27.5359 20.0999 26.1C20.0999 24.6641 18.9358 23.5 17.4999 23.5C16.064 23.5 14.8999 24.6641 14.8999 26.1C14.8999 27.5359 16.064 28.7 17.4999 28.7Z" fill="#ED1651"/>
<path d="M13.1996 15.8001C14.6356 15.8001 15.7996 14.636 15.7996 13.2001C15.7996 11.7642 14.6356 10.6001 13.1996 10.6001C11.7637 10.6001 10.5996 11.7642 10.5996 13.2001C10.5996 14.636 11.7637 15.8001 13.1996 15.8001Z" fill="#ED1651"/>
<path d="M17.4999 20.1001C18.9358 20.1001 20.0999 18.9361 20.0999 17.5001C20.0999 16.0642 18.9358 14.9001 17.4999 14.9001C16.064 14.9001 14.8999 16.0642 14.8999 17.5001C14.8999 18.9361 16.064 20.1001 17.4999 20.1001Z" fill="#ED1651"/>
<path d="M21.7997 24.4C23.2356 24.4 24.3997 23.2359 24.3997 21.7999C24.3997 20.364 23.2356 19.2 21.7997 19.2C20.3638 19.2 19.1997 20.364 19.1997 21.7999C19.1997 23.2359 20.3638 24.4 21.7997 24.4Z" fill="#ED1651"/>
<path d="M17.4999 11.5C18.9358 11.5 20.0999 10.336 20.0999 8.90005C20.0999 7.46411 18.9358 6.30005 17.4999 6.30005C16.064 6.30005 14.8999 7.46411 14.8999 8.90005C14.8999 10.336 16.064 11.5 17.4999 11.5Z" fill="#A6CE39"/>
<path d="M21.7997 15.8001C23.2356 15.8001 24.3997 14.636 24.3997 13.2001C24.3997 11.7642 23.2356 10.6001 21.7997 10.6001C20.3638 10.6001 19.1997 11.7642 19.1997 13.2001C19.1997 14.636 20.3638 15.8001 21.7997 15.8001Z" fill="#ED1651"/>
<path d="M26.1 20.1001C27.5359 20.1001 28.7 18.9361 28.7 17.5001C28.7 16.0642 27.5359 14.9001 26.1 14.9001C24.6641 14.9001 23.5 16.0642 23.5 17.5001C23.5 18.9361 24.6641 20.1001 26.1 20.1001Z" fill="#ED1651"/>
</svg>
