<svg width="60" height="60" viewBox="0 0 60 60" fill="none" xmlns="http://www.w3.org/2000/svg" preserveAspectRatio="xMidYMid meet">
<rect width="30" height="30" fill="black" fill-opacity="0" transform="scale(2)"/>
<rect width="60" height="60" rx="5" fill="#8de2b1"/>
<path d="M32.393 38.2198C32.393 39.1787 31.6156 39.956 30.6567 39.956H24.901V43.8642C24.901 45.0438 23.9447 46 22.7652 46C21.5856 46 20.6294 45.0438 20.6294 43.8642V39.956H17.7363C16.7774 39.956 16 39.1787 16 38.2198C16 37.2609 16.7774 36.4835 17.7363 36.4835H20.6294V33.4725H17.7253C16.7724 33.4725 16 32.7001 16 31.7473C16 30.7944 16.7724 30.022 17.7253 30.022H20.6294V14H32.639C36.1278 14 38.8935 14.8718 40.9361 16.6154C42.9787 18.359 44 20.7179 44 23.6923C44 26.8132 43.016 29.2234 41.0479 30.9231C39.0948 32.6081 36.3142 33.4579 32.7061 33.4725H24.901V36.4835H30.6567C31.6156 36.4835 32.393 37.2609 32.393 38.2198ZM24.901 30.022H32.639C34.9499 30.022 36.7093 29.4872 37.9169 28.4176C39.1246 27.348 39.7284 25.7875 39.7284 23.7363C39.7284 21.8755 39.1022 20.3736 37.8498 19.2308C36.5974 18.0733 34.9052 17.4872 32.7732 17.4725H24.901V30.022Z" fill="#27ae60"/>
</svg>
