<svg width="35" height="50" viewBox="0 0 35 50" fill="none" xmlns="http://www.w3.org/2000/svg" preserveAspectRatio="xMidYMid meet">
<rect width="35" height="50" fill="black" fill-opacity="0"/>
<path d="M17.5 48.4815C17.0274 47.9322 16.3524 47.1333 15.5424 46.1343C13.9146 44.1267 11.7459 41.3164 9.57909 38.1034C7.41041 34.8875 5.25606 31.2864 3.64693 27.6957C2.03187 24.0918 1 20.5724 1 17.5C1 8.35229 8.35229 1 17.5 1C26.6477 1 34 8.35228 34 17.5C34 20.5724 32.9681 24.0918 31.3531 27.6957C29.7439 31.2864 27.5896 34.8875 25.4209 38.1034C23.2542 41.3164 21.0854 44.1267 19.4576 46.1343C18.6476 47.1333 17.9726 47.9322 17.5 48.4815Z" fill="white" stroke="#6BAA10" stroke-width="2"/>
<rect width="22.5042" height="17.644" fill="black" fill-opacity="0" transform="translate(7.5957 10.6199)"/>
<rect width="22.5042" height="17.644" fill="black" fill-opacity="0" transform="translate(7.5957 10.6199)"/>
<path d="M23.2999 14.5999C23.2999 14.5999 24.1999 13.9999 28.5999 12.6999C28.5999 12.6999 28.8999 12.6999 28.8999 12.3999C28.9999 12.1999 28.1999 12.0999 28.1999 12.0999C28.1999 12.0999 18.1999 12.3999 15.8999 12.1999C15.8999 12.1999 11.3999 11.9999 8.79991 10.9999C8.79991 10.9999 7.69991 10.2999 7.59991 10.7999C7.49991 11.1999 9.19991 14.4999 10.6999 16.2999C10.6999 16.2999 8.29991 21.5999 7.99991 26.1999C7.99991 26.1999 7.99991 26.4999 8.39991 26.1999C8.49991 26.0999 9.69991 23.8999 10.1999 23.6999C10.8999 22.8999 16.4999 16.3999 23.2999 14.5999Z" fill="#6BAA10"/>
<path d="M30.1 14.7C30.1 14.6 28.5 14.5 26.9 14.5C14.6 18.5 10.2 25.7 9.6 26.9C9.5 27.6 9.5 28.1 9.5 28.2C9.5 28.2 9.9 28.5 10.2 27.8C10.2 27.8 13.7 19.6 28.6 15.4L29.7 15.1C29.7 15.1 30.1 15 30.1 14.7Z" fill="#6BAA10"/>
<path d="M26.9001 14.5C25.5001 14.5 23.9001 14.5 23.3001 14.6C16.5001 16.4 10.9001 22.9 10.2001 23.7C10.2001 23.7 9.8001 25.5 9.6001 26.8C10.2001 25.7 14.6001 18.5 26.9001 14.5Z" fill="#5E8E00"/>
</svg>
