<svg width="44" height="48" viewBox="0 0 44 48" fill="none" xmlns="http://www.w3.org/2000/svg" preserveAspectRatio="xMidYMid meet">
<rect width="22" height="24" fill="black" fill-opacity="0" transform="scale(2)"/>
<path d="M44 34.8C44 35.712 43.4867 36.504 42.7044 36.912L23.3933 47.568C23.0022 47.856 22.5133 48 22 48C21.4867 48 20.9978 47.856 20.6067 47.568L1.29556 36.912C0.513333 36.504 0 35.712 0 34.8V13.2C0 12.288 0.513333 11.496 1.29556 11.088L20.6067 0.432C20.9978 0.144 21.4867 0 22 0C22.5133 0 23.0022 0.144 23.3933 0.432L42.7044 11.088C43.4867 11.496 44 12.288 44 13.2V34.8ZM22 5.16L17.38 7.728L31.7778 15.864L36.5689 13.2L22 5.16ZM7.43111 13.2L22 21.24L26.7911 18.6L12.4178 10.44L7.43111 13.2ZM4.88889 33.384L19.5556 41.496V25.392L4.88889 17.304V33.384ZM39.1111 33.384V17.304L24.4444 25.392V41.496L39.1111 33.384Z" fill="#219bd6"/>
</svg>
