<svg width="36" height="50" viewBox="0 0 36 50" fill="none" xmlns="http://www.w3.org/2000/svg" preserveAspectRatio="xMidYMid meet">
<rect width="35" height="50" fill="black" fill-opacity="0" transform="translate(0.5)"/>
<path d="M18 48.4815C17.5274 47.9322 16.8524 47.1333 16.0424 46.1343C14.4146 44.1267 12.2459 41.3164 10.0791 38.1034C7.91041 34.8875 5.75606 31.2864 4.14693 27.6957C2.53187 24.0918 1.5 20.5724 1.5 17.5C1.5 8.35229 8.85229 1 18 1C27.1477 1 34.5 8.35228 34.5 17.5C34.5 20.5724 33.4681 24.0918 31.8531 27.6957C30.2439 31.2864 28.0896 34.8875 25.9209 38.1034C23.7542 41.3164 21.5854 44.1267 19.9576 46.1343C19.1476 47.1333 18.4726 47.9322 18 48.4815Z" fill="white" stroke="black" stroke-width="2"/>
<rect width="20" height="17.4" fill="black" fill-opacity="0" transform="translate(8 6.30005)"/>
<rect width="20" height="17.4" fill="black" fill-opacity="0" transform="translate(8 6.30005)"/>
<rect width="20" height="17.4" fill="black" fill-opacity="0" transform="translate(8 6.30005)"/>
<rect width="9.6" height="8.3" fill="black" fill-opacity="0" transform="translate(18.3999 15.4001)"/>
<path d="M23.1999 15.4001L18.3999 23.7001H20.9999L23.1999 19.7001L25.4999 23.7001H27.9999L23.1999 15.4001Z" fill="#F8AC18"/>
<rect width="6.60001" height="9.9" fill="black" fill-opacity="0" transform="translate(16.2002 6.30005)"/>
<path d="M22.8002 14.7L18.0002 6.30005L16.2002 9.50005L22.0002 16.2L22.8002 14.7Z" fill="#F8AC18"/>
<rect width="7.4" height="7.8" fill="black" fill-opacity="0" transform="translate(14.2002 10.1001)"/>
<path d="M21.6002 16.8001L15.9002 10.1001L14.2002 13.0001L20.9002 17.9001L21.6002 16.8001Z" fill="#F8AC18"/>
<rect width="8.4" height="6.1" fill="black" fill-opacity="0" transform="translate(12.2002 13.6001)"/>
<path d="M20.6002 18.5001L13.9002 13.6001L12.2002 16.4001L19.9002 19.7001L20.6002 18.5001Z" fill="#F8AC18"/>
<rect width="9.3" height="4.5" fill="black" fill-opacity="0" transform="translate(10.2002 17.1001)"/>
<path d="M19.5002 20.3001L11.8002 17.1001L10.2002 19.9001L18.8002 21.6001L19.5002 20.3001Z" fill="#F8AC18"/>
<rect width="10.5" height="3.2" fill="black" fill-opacity="0" transform="translate(8 20.5)"/>
<path d="M9.9 20.5L8 23.7H17.6L18.5 22.1L9.9 20.5Z" fill="#F8AC18"/>
</svg>
