<svg width="35" height="50" viewBox="0 0 35 50" fill="none" xmlns="http://www.w3.org/2000/svg" preserveAspectRatio="xMidYMid meet">
<rect width="35" height="50" fill="black" fill-opacity="0"/>
<path d="M17.5 48.4815C17.0274 47.9322 16.3524 47.1333 15.5424 46.1343C13.9146 44.1267 11.7459 41.3164 9.57909 38.1034C7.41041 34.8875 5.25606 31.2864 3.64693 27.6957C2.03187 24.0918 1 20.5724 1 17.5C1 8.35229 8.35229 1 17.5 1C26.6477 1 34 8.35229 34 17.5C34 20.5724 32.9681 24.0918 31.3531 27.6957C29.7439 31.2864 27.5896 34.8875 25.4209 38.1034C23.2542 41.3164 21.0854 44.1267 19.4576 46.1343C18.6476 47.1333 17.9726 47.9322 17.5 48.4815Z" fill="white" stroke="#DB0533" stroke-width="2"/>
<path d="M21.1001 16.4001C21.0001 16.5001 20.9001 16.4001 20.8001 16.4001L20.2001 16.1001C20.1001 16.1001 20.1001 16.0001 20.1001 15.9001V15.3001C20.1001 15.2001 20.2001 15.1001 20.2001 15.1001L26.6001 11.4001L17.6001 6.3001C17.4001 6.2001 17.2001 6.2001 17.0001 6.3001L8.0001 11.5001L17.9001 17.2001C18.0001 17.2001 18.0001 17.3001 18.0001 17.4001V25.9001C18.0001 26.0001 17.9001 26.1001 17.9001 26.1001L17.3001 26.4001C17.2001 26.4001 17.1001 26.4001 17.0001 26.4001L16.4001 26.1001C16.3001 26.1001 16.3001 26.0001 16.3001 25.9001V18.4001C16.3001 18.3001 16.2001 18.2001 16.2001 18.2001L7.1001 13.0001V23.0001C7.1001 23.2001 7.2001 23.4001 7.4001 23.5001L16.9001 29.0001C17.1001 29.1001 17.3001 29.1001 17.5001 29.0001L27.0001 23.5001C27.2001 23.4001 27.3001 23.2001 27.3001 23.0001V12.7001L21.1001 16.4001Z" fill="#DB0533"/>
</svg>
