<svg width="35" height="50" viewBox="0 0 35 50" fill="none" xmlns="http://www.w3.org/2000/svg">
<g clip-path="url(#clip0)">
<path d="M17.5 48.4815C17.0274 47.9322 16.3524 47.1333 15.5424 46.1343C13.9146 44.1267 11.7459 41.3164 9.57909 38.1034C7.41041 34.8875 5.25606 31.2864 3.64693 27.6957C2.03187 24.0918 1 20.5724 1 17.5C1 8.35229 8.35229 1 17.5 1C26.6477 1 34 8.35228 34 17.5C34 20.5724 32.9681 24.0918 31.3531 27.6957C29.7439 31.2864 27.5896 34.8875 25.4209 38.1034C23.2542 41.3164 21.0854 44.1267 19.4576 46.1343C18.6476 47.1333 17.9726 47.9322 17.5 48.4815Z" fill="white" stroke="#2FC4FC" stroke-width="2"/>
<path d="M24 19.9155H13.828V23.2254H24V26H13.828C13.4432 26 13.0777 25.9296 12.7314 25.7887C12.3851 25.6385 12.0821 25.4413 11.8224 25.1972C11.5723 24.9437 11.3703 24.6479 11.2164 24.3099C11.0721 23.9718 11 23.6103 11 23.2254V13.7746C11 13.3897 11.0721 13.0282 11.2164 12.6901C11.3703 12.3521 11.5723 12.061 11.8224 11.8169C12.0821 11.5634 12.3851 11.3662 12.7314 11.2254C13.0777 11.0751 13.4432 11 13.828 11H21.1576C21.552 11 21.9223 11.0751 22.2686 11.2254C22.6149 11.3662 22.9131 11.5634 23.1632 11.8169C23.4229 12.061 23.6249 12.3521 23.7691 12.6901C23.923 13.0282 24 13.3897 24 13.7746V19.9155ZM13.828 13.7746V17.1408H21.1576V13.7746H13.828Z" fill="#2FC4FC"/>
</g>
<defs>
<clipPath id="clip0">
<rect width="35" height="50" fill="white"/>
</clipPath>
</defs>
</svg>
