<svg width="36" height="50" viewBox="0 0 36 50" fill="none" xmlns="http://www.w3.org/2000/svg" preserveAspectRatio="xMidYMid meet">
<rect width="35" height="50" fill="black" fill-opacity="0" transform="translate(0.799805)"/>
<path d="M18.2998 48.4815C17.8272 47.9322 17.1522 47.1333 16.3422 46.1343C14.7144 44.1267 12.5457 41.3164 10.3789 38.1034C8.21021 34.8875 6.05586 31.2864 4.44673 27.6957C2.83168 24.0918 1.7998 20.5724 1.7998 17.5C1.7998 8.35229 9.15209 1 18.2998 1C27.4475 1 34.7998 8.35228 34.7998 17.5C34.7998 20.5724 33.7679 24.0918 32.1529 27.6957C30.5437 31.2864 28.3894 34.8875 26.2207 38.1034C24.054 41.3164 21.8852 44.1267 20.2574 46.1343C19.4474 47.1333 18.7725 47.9322 18.2998 48.4815Z" fill="white" stroke="#FFC552" stroke-width="2"/>
<rect width="22.5" height="11" fill="black" fill-opacity="0" transform="translate(8 12.1001)"/>
<rect width="22.5" height="11" fill="black" fill-opacity="0" transform="translate(8 12.1001)"/>
<path d="M10.5 23.0002H8.1C8 23.0002 8 22.9002 8 22.9002V12.3002C8 12.2002 8 12.2002 8.1 12.2002H10.5C10.6 12.2002 10.6 12.3002 10.6 12.3002V22.9002C10.7 22.9002 10.6 23.0002 10.5 23.0002Z" fill="#3B4656"/>
<path d="M22.1002 12.2002H21.3002H20.6002H20.0002C19.8002 12.2002 19.6002 12.3002 19.6002 12.5002L17.3002 17.3002C17.2002 17.5002 17.0002 17.5002 16.9002 17.3002L14.6002 12.5002C14.5002 12.3002 14.3002 12.2002 14.2002 12.2002H13.7002H13.1002H12.2002C11.9002 12.2002 11.7002 12.4002 11.7002 12.7002V22.6002C11.7002 22.9002 11.9002 23.1002 12.2002 23.1002H13.7002C14.0002 23.1002 14.2002 22.9002 14.2002 22.6002V16.4002C14.2002 16.3002 14.3002 16.3002 14.4002 16.3002L16.3002 20.2002C16.4002 20.4002 16.6002 20.5002 16.7002 20.5002H17.6002C17.8002 20.5002 18.0002 20.4002 18.0002 20.2002L19.9002 16.4002C19.9002 16.3002 20.1002 16.3002 20.1002 16.5002V22.6002C20.1002 22.9002 20.3002 23.1002 20.6002 23.1002H22.1002C22.4002 23.1002 22.6002 22.9002 22.6002 22.6002V12.7002C22.6002 12.4002 22.3002 12.2002 22.1002 12.2002Z" fill="#3B4656"/>
<path d="M30.1 21.0001H26.7C26.4 21.0001 26.2 20.8001 26.2 20.5001V12.6001C26.2 12.3001 26 12.1001 25.7 12.1001H24C23.7 12.1001 23.5 12.3001 23.5 12.6001V22.5001C23.5 22.8001 23.7 23.0001 24 23.0001H25.1H25.7H30C30.3 23.0001 30.5 22.8001 30.5 22.5001V21.5001C30.5 21.3001 30.3 21.0001 30.1 21.0001Z" fill="#3B4656"/>
</svg>
