<svg width="30" height="30" viewBox="0 0 30 30" fill="none" xmlns="http://www.w3.org/2000/svg" preserveAspectRatio="xMidYMid meet">
<rect width="30" height="30" rx="5" fill="#424360"/>
<path d="M8.01593 19.6735V21.7976C8.01593 21.7976 11.4591 24.93 15.1494 24.93C18.8397 24.93 21.984 21.7976 21.984 21.7976V19.7094C21.984 19.6894 18.6484 21.7697 15.1933 21.7657C11.6624 21.7617 8.01593 19.6735 8.01593 19.6735Z" fill="#64BB4C"/>
<path d="M21.9801 11.8665V11.7828H21.9761C21.8725 8.01679 18.7879 5 14.998 5C11.2081 5 8.12752 8.01679 8.01992 11.7828H8.01593V18.5776C8.01593 18.5776 11.1045 20.4825 15.3049 20.4825C19.2901 20.4825 21.9801 18.5417 21.9801 18.5417V12.1016C21.9801 12.0618 21.984 12.0259 21.984 11.9861C21.984 11.9462 21.9801 11.9063 21.9801 11.8665Z" fill="#13A753"/>
<path d="M15.257 15.5369C16.6758 15.5369 17.8275 14.3851 17.8275 12.9664C17.8275 11.5477 16.6758 10.396 15.257 10.396C13.8383 10.396 12.6866 11.5477 12.6866 12.9664C12.6866 14.3851 13.8383 15.5369 15.257 15.5369Z" fill="white"/>
<path d="M18.8557 19.9285C18.6923 17.7048 17.146 15.9593 15.257 15.9593C13.3481 15.9593 11.7859 17.7407 11.6544 20.0003C9.51836 19.4145 8 18.5417 8 18.5417V19.6934C8 19.6934 11.8138 21.8255 15.257 21.8255C18.7003 21.8255 22 19.805 22 19.805V18.5417C21.996 18.5417 20.3342 19.5021 18.8557 19.9285Z" fill="white"/>
</svg>
