<svg width="60" height="60" viewBox="0 0 60 60" fill="none" xmlns="http://www.w3.org/2000/svg" preserveAspectRatio="xMidYMid meet">
<rect width="30" height="30" fill="black" fill-opacity="0" transform="scale(2)"/>
<rect width="60" height="60" rx="5" fill="#9b51e0"/>
<rect width="18" height="18" fill="black" fill-opacity="0" transform="translate(12 12) scale(2)"/>
<path d="M46.8206 13.6875H13.1232C12.8253 13.6875 12.5396 13.806 12.329 14.017C12.1183 14.228 12 14.5141 12 14.8125C12 15.1109 12.1183 15.397 12.329 15.608C12.5396 15.819 12.8253 15.9375 13.1232 15.9375H16.493V46.3125L19.8627 44.0625L23.2886 46.3125L26.6583 44.0625L30.0281 46.3125L33.3978 44.0625L36.7676 46.3125L40.1373 44.0625L43.507 46.3125V15.9375H46.8768C47.1747 15.9375 47.4604 15.819 47.671 15.608C47.8817 15.397 48 15.1109 48 14.8125C48 14.5141 47.8817 14.228 47.671 14.017C47.4604 13.806 47.1747 13.6875 46.8768 13.6875H46.8206ZM28.8487 36.1875H22.1092C21.8113 36.1875 21.5256 36.069 21.315 35.858C21.1043 35.647 20.986 35.3609 20.986 35.0625C20.986 34.7641 21.1043 34.478 21.315 34.267C21.5256 34.056 21.8113 33.9375 22.1092 33.9375H28.8487C29.1466 33.9375 29.4323 34.056 29.6429 34.267C29.8536 34.478 29.9719 34.7641 29.9719 35.0625C29.9719 35.3609 29.8536 35.647 29.6429 35.858C29.4323 36.069 29.1466 36.1875 28.8487 36.1875ZM31.0952 31.6875H22.1092C21.8113 31.6875 21.5256 31.569 21.315 31.358C21.1043 31.147 20.986 30.8609 20.986 30.5625C20.986 30.2641 21.1043 29.978 21.315 29.767C21.5256 29.556 21.8113 29.4375 22.1092 29.4375H31.0952C31.3931 29.4375 31.6788 29.556 31.8894 29.767C32.1001 29.978 32.2184 30.2641 32.2184 30.5625C32.2184 30.8609 32.1001 31.147 31.8894 31.358C31.6788 31.569 31.3931 31.6875 31.0952 31.6875ZM20.986 23.8125C20.986 23.5141 21.1043 23.228 21.315 23.017C21.5256 22.806 21.8113 22.6875 22.1092 22.6875H28.8487C29.1466 22.6875 29.4323 22.806 29.6429 23.017C29.8536 23.228 29.9719 23.5141 29.9719 23.8125C29.9719 24.1109 29.8536 24.397 29.6429 24.608C29.4323 24.819 29.1466 24.9375 28.8487 24.9375H22.1092C21.8113 24.9375 21.5256 24.819 21.315 24.608C21.1043 24.397 20.986 24.1109 20.986 23.8125ZM31.0952 20.4375H22.1092C21.8113 20.4375 21.5256 20.319 21.315 20.108C21.1043 19.897 20.986 19.6109 20.986 19.3125C20.986 19.0141 21.1043 18.728 21.315 18.517C21.5256 18.306 21.8113 18.1875 22.1092 18.1875H31.0952C31.3931 18.1875 31.6788 18.306 31.8894 18.517C32.1001 18.728 32.2184 19.0141 32.2184 19.3125C32.2184 19.6109 32.1001 19.897 31.8894 20.108C31.6788 20.319 31.3931 20.4375 31.0952 20.4375ZM37.8346 36.1875H35.5881C35.2902 36.1875 35.0045 36.069 34.7939 35.858C34.5832 35.647 34.4649 35.3609 34.4649 35.0625C34.4649 34.7641 34.5832 34.478 34.7939 34.267C35.0045 34.056 35.2902 33.9375 35.5881 33.9375H37.8346C38.1325 33.9375 38.4182 34.056 38.6289 34.267C38.8395 34.478 38.9579 34.7641 38.9579 35.0625C38.9579 35.3609 38.8395 35.647 38.6289 35.858C38.4182 36.069 38.1325 36.1875 37.8346 36.1875ZM37.8346 31.6875H35.5881C35.2902 31.6875 35.0045 31.569 34.7939 31.358C34.5832 31.147 34.4649 30.8609 34.4649 30.5625C34.4649 30.2641 34.5832 29.978 34.7939 29.767C35.0045 29.556 35.2902 29.4375 35.5881 29.4375H37.8346C38.1325 29.4375 38.4182 29.556 38.6289 29.767C38.8395 29.978 38.9579 30.2641 38.9579 30.5625C38.9579 30.8609 38.8395 31.147 38.6289 31.358C38.4182 31.569 38.1325 31.6875 37.8346 31.6875ZM37.8346 24.9375H35.5881C35.2902 24.9375 35.0045 24.819 34.7939 24.608C34.5832 24.397 34.4649 24.1109 34.4649 23.8125C34.4649 23.5141 34.5832 23.228 34.7939 23.017C35.0045 22.806 35.2902 22.6875 35.5881 22.6875H37.8346C38.1325 22.6875 38.4182 22.806 38.6289 23.017C38.8395 23.228 38.9579 23.5141 38.9579 23.8125C38.9579 24.1109 38.8395 24.397 38.6289 24.608C38.4182 24.819 38.1325 24.9375 37.8346 24.9375ZM37.8346 20.4375H35.5881C35.2902 20.4375 35.0045 20.319 34.7939 20.108C34.5832 19.897 34.4649 19.6109 34.4649 19.3125C34.4649 19.0141 34.5832 18.728 34.7939 18.517C35.0045 18.306 35.2902 18.1875 35.5881 18.1875H37.8346C38.1325 18.1875 38.4182 18.306 38.6289 18.517C38.8395 18.728 38.9579 19.0141 38.9579 19.3125C38.9579 19.6109 38.8395 19.897 38.6289 20.108C38.4182 20.319 38.1325 20.4375 37.8346 20.4375Z" fill="white"/>
</svg>
