<svg width="60" height="60" viewBox="0 0 60 60" fill="none" xmlns="http://www.w3.org/2000/svg" preserveAspectRatio="xMidYMid meet">
<rect width="30" height="30" fill="black" fill-opacity="0" transform="scale(2)"/>
<rect width="60" height="60" rx="5" fill="#576574"/>
<rect width="18" height="18" fill="black" fill-opacity="0" transform="translate(12 12) scale(2)"/>
<rect width="18" height="15.6" fill="black" fill-opacity="0" transform="translate(12 14.3996) scale(2)"/>
<path d="M38.4 33.5996V35.3996C38.4 35.877 38.2104 36.3348 37.8728 36.6724C37.5352 37.01 37.0774 37.1996 36.6 37.1996H23.4C22.9226 37.1996 22.4648 37.01 22.1272 36.6724C21.7896 36.3348 21.6 35.877 21.6 35.3996V33.5996H12V45.5996H48V33.5996H38.4Z" fill="white"/>
<path d="M45.5999 28.7996H14.4C14.0817 28.7996 13.7765 28.9261 13.5514 29.1511C13.3264 29.3761 13.2 29.6814 13.2 29.9996C13.2 30.3179 13.3264 30.6231 13.5514 30.8482C13.7765 31.0732 14.0817 31.1996 14.4 31.1996H45.5999C45.9182 31.1996 46.2234 31.0732 46.4485 30.8482C46.6735 30.6231 46.7999 30.3179 46.7999 29.9996C46.7999 29.6814 46.6735 29.3761 46.4485 29.1511C46.2234 28.9261 45.9182 28.7996 45.5999 28.7996Z" fill="white"/>
<path d="M45.5999 23.9996H14.4C14.0817 23.9996 13.7765 24.126 13.5514 24.351C13.3264 24.5761 13.2 24.8813 13.2 25.1996C13.2 25.5178 13.3264 25.8231 13.5514 26.0481C13.7765 26.2731 14.0817 26.3996 14.4 26.3996H45.5999C45.9182 26.3996 46.2234 26.2731 46.4485 26.0481C46.6735 25.8231 46.7999 25.5178 46.7999 25.1996C46.7999 24.8813 46.6735 24.5761 46.4485 24.351C46.2234 24.126 45.9182 23.9996 45.5999 23.9996Z" fill="white"/>
<path d="M45.5999 19.1996H14.4C14.0817 19.1996 13.7765 19.326 13.5514 19.5511C13.3264 19.7761 13.2 20.0813 13.2 20.3996C13.2 20.7178 13.3264 21.0231 13.5514 21.2481C13.7765 21.4732 14.0817 21.5996 14.4 21.5996H45.5999C45.9182 21.5996 46.2234 21.4732 46.4485 21.2481C46.6735 21.0231 46.7999 20.7178 46.7999 20.3996C46.7999 20.0813 46.6735 19.7761 46.4485 19.5511C46.2234 19.326 45.9182 19.1996 45.5999 19.1996Z" fill="white"/>
<path d="M14.4 16.7996H45.5999C45.9182 16.7996 46.2234 16.6732 46.4485 16.4481C46.6735 16.2231 46.7999 15.9179 46.7999 15.5996C46.7999 15.2813 46.6735 14.9761 46.4485 14.7511C46.2234 14.526 45.9182 14.3996 45.5999 14.3996H14.4C14.0817 14.3996 13.7765 14.526 13.5514 14.7511C13.3264 14.9761 13.2 15.2813 13.2 15.5996C13.2 15.9179 13.3264 16.2231 13.5514 16.4481C13.7765 16.6732 14.0817 16.7996 14.4 16.7996V16.7996Z" fill="white"/>
</svg>
