<svg width="36" height="50" viewBox="0 0 36 50" fill="none" xmlns="http://www.w3.org/2000/svg" preserveAspectRatio="xMidYMid meet">
<rect width="35" height="50" fill="black" fill-opacity="0" transform="translate(0.299805)"/>
<path d="M17.7998 48.4815C17.3272 47.9322 16.6522 47.1333 15.8422 46.1343C14.2144 44.1267 12.0457 41.3164 9.87889 38.1034C7.71021 34.8875 5.55586 31.2864 3.94673 27.6957C2.33168 24.0918 1.2998 20.5724 1.2998 17.5C1.2998 8.35229 8.65209 1 17.7998 1C26.8512 1 34.2998 8.356 34.2998 17.5C34.2998 20.5724 33.2679 24.0918 31.6529 27.6957C30.0437 31.2864 27.8894 34.8875 25.7207 38.1034C23.554 41.3164 21.3852 44.1267 19.7574 46.1343C18.9474 47.1333 18.2725 47.9322 17.7998 48.4815Z" fill="white" stroke="#0C549F" stroke-width="2"/>
<rect width="25" height="15.3" fill="black" fill-opacity="0" transform="translate(5.2998 9.80005)"/>
<path d="M12.2 12.2C12.3 12.2 12.3 12.2 12.4 12.2C13 12.3 13.6 12.5 14.1 12.8C14.8 13.3 15.2 14 15.4 14.8C15.4 14.9 15.4 15.1 15.4 15.3V15.4C15.4 15.4 15.3 15.4 15.3 15.3C14.8 15 14.3 14.8 13.8 14.6C13.7 14.6 13.7 14.5 13.7 14.5C13.7 14.2 13.6 13.9 13.3 13.6C13 13.3 12.7 13.1 12.3 13C12.2 13 12.1 13 12 13C12 13.1 12 13.1 12 13.1C12 13.4 12 13.7 12 14V14.1C11.9 14.1 11.8 14 11.7 14C11.3 13.9 10.9 13.9 10.5 13.9C10.1 13.9 9.8 13.9 9.5 13.9C9 13.9 8.49999 14 7.89999 14.2C7.19999 14.4 6.5 14.8 6 15.2C5.9 15.3 5.70001 15.5 5.60001 15.6C5.60001 15.6 5.6 15.7 5.5 15.7V15.6C5.8 14.9 6.10001 14.3 6.60001 13.7C7.20001 12.9 7.90001 12.3 8.70001 11.8C9.60001 11.2 10.6 10.8 11.6 10.4C11.7 10.3 11.8 10.3 12 10.3H12.1C12.1 10.4 12.1 10.5 12.1 10.6C12.1 10.7 12.1 10.8 12.1 10.9C12.1 11 12.1 11.1 12.1 11.2C12.1 11.2 12.1 11.2 12.2 11.2C12.5 11.2 12.8 11.1 13.1 10.9C13.4 10.7 13.5 10.5 13.6 10.1C13.6 10 13.6 10 13.7 10C14.1 9.90005 14.6 9.90005 15 9.80005C15.1 9.80005 15.2 9.80005 15.3 9.80005C15.3 9.80005 15.3 9.80005 15.4 9.80005V9.90005C15.1 10.6 14.6 11.2 14 11.5C13.5 11.8 13.1 11.9 12.6 11.9C12.3 12.2 12.3 12.2 12.2 12.2Z" fill="#0C549F"/>
<path d="M22.8999 12.8001C22.8999 13.5001 22.8999 14.2001 22.8999 14.9001C22.7999 14.8001 22.7999 14.8001 22.7999 14.8001C22.6999 14.7001 22.4999 14.5001 22.3999 14.4001C22.2999 14.3001 22.2999 14.2001 22.1999 14.1001C22.1999 14.1001 22.1999 14.1001 22.1999 14.0001C22.1999 14.2001 22.0999 14.5001 22.0999 14.7001C21.9999 15.2001 22.1999 15.7001 22.5999 16.1001C22.6999 16.2001 22.8999 16.4001 22.9999 16.4001C23.0999 16.5001 23.0999 16.5001 23.0999 16.6001C23.0999 17.2001 23.0999 17.8001 23.0999 18.4001C23.0999 18.6001 23.0999 18.8001 23.0999 19.0001C23.0999 19.1001 23.0999 19.1001 22.9999 19.1001C22.6999 19.2001 22.3999 19.3001 21.9999 19.4001C21.9999 19.4001 21.8999 19.4001 21.7999 19.4001C21.7999 17.1001 21.7999 14.8001 21.7999 12.5001C21.4999 12.5001 21.1999 12.6001 20.7999 12.6001C20.4999 12.7001 20.1999 12.7001 19.8999 12.8001C19.8999 12.7001 19.8999 10.0001 19.8999 9.90015H19.9999C20.9999 10.1001 21.8999 10.4001 22.8999 10.8001C23.8999 11.2001 24.7999 11.7001 25.6999 12.4001C26.2999 12.9001 26.8999 13.5001 27.2999 14.2001C27.2999 14.2001 27.2999 14.2001 27.2999 14.3001C27.0999 14.4001 26.8999 14.5001 26.6999 14.7001C26.6999 14.7001 26.6999 14.6001 26.5999 14.6001C26.2999 14.2001 25.9999 14.0001 25.5999 13.7001C24.8999 13.2001 24.0999 12.8001 23.1999 12.7001C22.9999 12.9001 22.9999 12.9001 22.8999 12.8001Z" fill="#0C549F"/>
<path d="M15.7998 10C16.1998 10 16.5998 10 16.8998 10C16.8998 10.1 16.8998 10.1 16.8998 10.1C16.8998 11.2 16.8998 12.3 16.8998 13.5C16.8998 13.6 16.8998 13.6 16.8998 13.8V13.7C17.2998 13 17.5998 12.3 17.7998 11.5C17.8998 11.1 17.9998 10.6 18.0998 10.2V10.1C18.4998 10.1 18.7998 10.2 19.1998 10.2C19.1998 10.3 19.1998 18.9 19.1998 19.1L19.0998 19C18.9998 18.9 18.9998 18.8 18.8998 18.7C18.5998 18.4 18.3998 18.1 18.1998 17.8C18.1998 17.7 18.1998 17.7 18.1998 17.6C18.1998 16.6 18.1998 15.7 18.1998 14.7C18.1998 14.6 18.1998 14.4 18.1998 14.3V14.2C17.4998 14.8 16.8998 15.4 16.4998 16.2C16.4998 16.2 16.4998 16.2 16.3998 16.1C16.1998 16 15.9998 15.9 15.8998 15.8L15.7998 15.7C15.7998 14.6 15.7998 13.6 15.7998 12.5C15.7998 11.7 15.7998 11 15.7998 10.2C15.7998 10.1 15.7998 10 15.7998 10Z" fill="#0C549F"/>
<path d="M30.0998 13.7C29.9998 14 29.6998 14.2 29.4998 14.3C29.2998 14.4 28.9998 14.5 28.7998 14.5C28.3998 14.6 27.9998 14.6 27.5998 14.7C27.4998 14.7 27.2998 14.8 27.1998 14.8C26.8998 14.9 26.6998 15.1 26.4998 15.3C26.3998 15.4 26.3998 15.4 26.2998 15.4C26.1998 15.4 26.1998 15.3 25.9998 15.3C25.7998 15.2 25.4998 15.2 25.2998 15.2C25.0998 15.2 24.8998 15.2 24.6998 15.2C24.3998 15.2 24.0998 15.3 23.7998 15.3C23.6998 15.3 23.4998 15.3 23.2998 15.3C22.9998 15.3 22.7998 15.2 22.5998 15C22.4998 14.9 22.3998 14.9 22.2998 14.7C22.2998 14.7 22.2998 14.6 22.1998 14.6C22.1998 14.6 22.1998 14.6 22.1998 14.7C22.1998 14.9 22.1998 15.1 22.1998 15.3C22.1998 15.7 22.4998 16 22.6998 16.2C22.9998 16.4 23.2998 16.6 23.5998 16.7C24.1998 16.9 24.7998 17 25.3998 17.1C25.4998 17.1 25.5998 17.1 25.6998 17.1C25.6998 17.1 25.6998 17.1 25.6998 17.2C25.5998 17.6 25.4998 18.1 25.2998 18.4C24.8998 19 24.3998 19.5 23.6998 19.8C23.0998 20.1 22.4998 20.2 21.7998 20.2C21.3998 20.2 20.9998 20.2 20.5998 20.1C20.0998 20 19.5998 19.9 19.1998 19.7C18.7998 19.5 18.4998 19.3 18.2998 18.9C17.9998 18.5 17.7998 18.1 17.4998 17.8C17.0998 17.4 16.6998 16.9 16.1998 16.6C15.7998 16.3 15.2998 16 14.7998 15.8C13.8998 15.4 12.8998 15 11.8998 14.8C11.3998 14.7 10.8998 14.6 10.3998 14.6C9.89981 14.6 9.39981 14.6 8.89981 14.7C8.19981 14.8 7.49981 15 6.89981 15.4C5.99981 16 5.3998 16.8 5.2998 17.8C5.2998 17.9 5.2998 18.1 5.2998 18.2C5.2998 18.6 5.49982 19 5.59982 19.4C5.89982 20.1 6.29981 20.8 6.89981 21.3C7.39981 21.9 8.0998 22.4 8.7998 22.9C9.3998 23.3 10.0998 23.6 10.6998 23.9C11.6998 24.3 12.6998 24.6 13.6998 24.8C14.1998 24.9 14.6998 24.9 15.1998 25C15.5998 25 15.9998 25.1 16.4998 25.1C16.9998 25.1 17.3998 25.1 17.7998 25.1C18.1998 25.1 18.5998 25 18.9998 25C19.5998 24.9 20.1998 24.8 20.7998 24.7C22.0998 24.4 23.1998 23.9 24.2998 23.3C25.1998 22.8 25.9998 22.2 26.6998 21.4C27.0998 20.9 27.4998 20.4 27.6998 19.8C27.8998 19.3 28.0998 18.8 28.0998 18.3C28.0998 17.9 28.1998 17.6 28.0998 17.2C28.0998 17.1 28.0998 16.9 28.0998 16.8C28.0998 16.7 28.0998 16.7 28.1998 16.7C28.4998 16.6 28.7998 16.4 29.0998 16.3C29.3998 16.1 29.6998 15.9 29.8998 15.7C30.0998 15.5 30.1998 15.3 30.2998 15.1C30.2998 14.5 30.2998 14.1 30.0998 13.7ZM9.89981 20.2C9.79981 20.3 9.69982 20.4 9.49982 20.4C9.19982 20.5 8.99983 20.5 8.69983 20.4C8.59983 20.3 8.49981 20.3 8.39981 20.2C8.29981 20 8.29981 19.8 8.39981 19.6C8.49981 19.5 8.69981 19.4 8.89981 19.3C8.99981 19.3 9.09983 19.3 9.19983 19.3C9.39983 19.3 9.59983 19.4 9.69983 19.4C9.69983 19.5 9.79981 19.5 9.89981 19.5C10.0998 19.8 9.99981 20 9.89981 20.2Z" fill="#0C549F"/>
<path d="M9.19982 20.1C9.09982 20.1 9.0998 20.1 8.9998 20C8.8998 19.9 8.8998 19.8 8.9998 19.7C9.0998 19.6 9.2998 19.6 9.3998 19.7C9.4998 19.8 9.4998 19.9 9.3998 20C9.2998 20.1 9.29982 20.1 9.19982 20.1Z" fill="#0C549F"/>
</svg>
