<svg width="36" height="50" viewBox="0 0 36 50" fill="none" xmlns="http://www.w3.org/2000/svg" preserveAspectRatio="xMidYMid meet">
<rect width="35" height="50" fill="black" fill-opacity="0" transform="translate(0.399902)"/>
<path d="M17.8999 48.4815C17.4273 47.9322 16.7523 47.1333 15.9423 46.1343C14.3145 44.1267 12.1458 41.3164 9.97899 38.1034C7.81031 34.8875 5.65596 31.2864 4.04683 27.6957C2.43178 24.0918 1.3999 20.5724 1.3999 17.5C1.3999 8.35229 8.75219 1 17.8999 1C27.0476 1 34.3999 8.35228 34.3999 17.5C34.3999 20.5724 33.368 24.0918 31.753 27.6957C30.1438 31.2864 27.9895 34.8875 25.8208 38.1034C23.6541 41.3164 21.4853 44.1267 19.8575 46.1343C19.0475 47.1333 18.3725 47.9322 17.8999 48.4815Z" fill="white" stroke="#144681" stroke-width="2"/>
<rect width="19" height="14.8" fill="black" fill-opacity="0" transform="translate(7.3999 9.1001)"/>
<path d="M7.3999 23.9001L11.7999 9.1001H16.6999L17.8999 16.7001L21.5999 9.1001H26.3999L26.1999 23.9001H21.6999L21.9999 16.5001L17.9999 23.9001H15.5999L13.8999 16.5001L11.7999 23.9001H7.3999Z" fill="#144681"/>
</svg>
