<svg width="35" height="50" viewBox="0 0 35 50" fill="none" xmlns="http://www.w3.org/2000/svg" preserveAspectRatio="xMidYMid meet">
<rect width="35" height="50" fill="black" fill-opacity="0"/>
<path d="M17.5 48.4815C17.0274 47.9322 16.3524 47.1333 15.5424 46.1343C13.9146 44.1267 11.7459 41.3164 9.57909 38.1034C7.41041 34.8875 5.25606 31.2864 3.64693 27.6957C2.03187 24.0918 1 20.5724 1 17.5C1 8.35229 8.35229 1 17.5 1C26.6477 1 34 8.35228 34 17.5C34 20.5724 32.9681 24.0918 31.3531 27.6957C29.7439 31.2864 27.5896 34.8875 25.4209 38.1034C23.2542 41.3164 21.0854 44.1267 19.4576 46.1343C18.6476 47.1333 17.9726 47.9322 17.5 48.4815Z" fill="white" stroke="#223B73" stroke-width="2"/>
<rect width="25" height="25" fill="black" fill-opacity="0" transform="translate(5 5)"/>
<path d="M17.5 5C10.6 5 5 10.6 5 17.5C5 24.4 10.6 30 17.5 30C24.4 30 30 24.4 30 17.5C30 10.6 24.4 5 17.5 5ZM17.5 29.1C11.1 29.1 6 23.9 6 17.6C6 11.3 11.1 6 17.5 6C23.9 6 29 11.1 29 17.5C29 23.9 23.9 29.1 17.5 29.1Z" fill="#223B73"/>
<path d="M15.5998 25V9.5C14.6998 9.6 13.7998 9.8 12.8998 10.1L12.3998 16.2L11.9998 10.3C11.0998 10.6 10.1998 11 9.2998 11.5V23C9.2998 23 9.89982 23.4 11.0998 23.9L10.9998 16.2L11.6998 24.1C12.0998 24.2 12.5998 24.4 13.0998 24.5L13.6998 15.7V24.6C14.2998 24.8 14.8998 25 15.5998 25Z" fill="#223B73"/>
<path d="M19.5 25.0001V12.5001H20.7V9.5001C19.3 9.2001 17.8 9.1001 16.1 9.3001L16 12.4001H17.3V25.0001C18 25.2001 18.7 25.1001 19.5 25.0001C19.5 25.1001 19.5 25.0001 19.5 25.0001Z" fill="#223B73"/>
<path d="M25.8002 18.6C25.7002 17.6 24.7002 17.3 24.7002 17.3C25.7002 16.9 25.7002 16.1 25.7002 16.1C25.6002 12.5 26.0002 11.6 26.0002 11.6C26.0002 11.6 25.4002 11.2 24.2002 10.7C23.9002 11 23.9002 11.6 23.9002 11.6V15.8C23.7002 16.4 23.2002 16.4 23.2002 16.4V10.4C22.6002 10.2 21.9002 10 21.2002 9.80005V24.9C21.9002 24.8 22.6002 24.6 23.2002 24.3V18.4C23.8002 18.6 23.8002 19.1 23.8002 19.1V23.2C24.0002 23.7 24.3002 23.8 24.3002 23.8C24.8002 23.6 25.4002 23.3 25.9002 23C25.7002 21.9 26.0002 19.6 25.8002 18.6Z" fill="#223B73"/>
</svg>
