<svg width="60" height="60" viewBox="0 0 60 60" fill="none" xmlns="http://www.w3.org/2000/svg" preserveAspectRatio="xMidYMid meet">
<rect width="30" height="30" fill="black" fill-opacity="0" transform="scale(2)"/>
<rect width="30" height="30" fill="black" fill-opacity="0" transform="scale(2)"/>
<rect width="30" height="30" fill="black" fill-opacity="0" transform="scale(2)"/>
<rect width="60" height="60" rx="5" fill="url(#paint0_linear)"/>
<path opacity="0.3" d="M41.3162 21.8219L41.2123 22.4246C39.8406 29.4284 35.1852 31.8392 29.2206 31.8392H26.1863C25.8351 31.8399 25.4956 31.9659 25.2289 32.1945C24.9623 32.423 24.7859 32.7392 24.7315 33.0862L23.1728 42.9372L22.7363 45.7221C22.7181 45.833 22.7244 45.9466 22.7548 46.0548C22.7852 46.163 22.8389 46.2633 22.9122 46.3485C22.9855 46.4337 23.0766 46.5017 23.1791 46.5479C23.2816 46.5941 23.3929 46.6173 23.5053 46.6158H28.888C29.1966 46.6198 29.4964 46.513 29.7329 46.3146C29.9694 46.1163 30.1268 45.8397 30.1766 45.5351V45.2649L31.1741 38.843V38.4897C31.2194 38.1813 31.3749 37.8998 31.6118 37.6973C31.8487 37.4947 32.151 37.3849 32.4627 37.3882H33.2732C38.4897 37.3882 42.5631 35.3099 43.6646 29.0751C43.9848 28.0238 44.0538 26.912 43.8661 25.8291C43.6784 24.7462 43.2392 23.7225 42.5839 22.8403C42.2181 22.4356 41.7902 22.0918 41.3162 21.8219Z" fill="white"/>
<path opacity="0.5" d="M39.8821 21.2615L39.2378 21.0953L38.552 20.9706C37.6716 20.838 36.7821 20.7754 35.8918 20.7835H27.7865C27.4784 20.7852 27.1811 20.8973 26.9485 21.0994C26.7159 21.3014 26.5635 21.5802 26.5187 21.885L24.7938 32.796V33.1077C24.8482 32.7608 25.0246 32.4446 25.2912 32.216C25.5579 31.9874 25.8973 31.8615 26.2486 31.8608H29.2829C35.2475 31.8608 39.9029 29.45 41.2745 22.4462C41.2745 22.2383 41.2745 22.0305 41.3785 21.8435C41.0184 21.6529 40.643 21.493 40.2562 21.3655L39.8821 21.2615Z" fill="white"/>
<path d="M26.498 21.8654C26.5428 21.5606 26.6952 21.2819 26.9278 21.0798C27.1604 20.8777 27.4577 20.7657 27.7658 20.7639H35.8711C36.7683 20.7547 37.6648 20.8173 38.5521 20.951L39.2379 21.0757L39.8822 21.242H40.1939C40.5806 21.3699 40.956 21.5298 41.3162 21.72C41.5791 20.6903 41.5898 19.6123 41.3474 18.5776C41.105 17.5429 40.6166 16.5819 39.9237 15.7761C38.3858 14.0303 35.6009 13.2614 32.047 13.2614H21.6556C21.3044 13.2621 20.965 13.388 20.6983 13.6166C20.4316 13.8452 20.2553 14.1613 20.2008 14.5083L15.9196 41.9209C15.9019 42.0465 15.9111 42.1745 15.9467 42.2963C15.9823 42.4181 16.0434 42.5309 16.126 42.6272C16.2085 42.7236 16.3107 42.8012 16.4256 42.855C16.5405 42.9088 16.6656 42.9375 16.7925 42.9392H23.1728L24.7731 32.7764L26.498 21.8654Z" fill="white"/>
<defs>
<linearGradient id="paint0_linear" x1="-6.31798" y1="-5.00866" x2="61.2885" y2="60.1663" gradientUnits="userSpaceOnUse">
<stop stop-color="#253B80"/>
<stop offset="1" stop-color="#179BD7"/>
</linearGradient>
</defs>
</svg>
