<svg width="36" height="50" viewBox="0 0 36 50" fill="none" xmlns="http://www.w3.org/2000/svg" preserveAspectRatio="xMidYMid meet">
<rect width="35" height="50" fill="black" fill-opacity="0" transform="translate(0.5)"/>
<path d="M18 48.4815C17.5274 47.9322 16.8524 47.1333 16.0424 46.1343C14.4146 44.1267 12.2459 41.3164 10.0791 38.1034C7.91041 34.8875 5.75606 31.2864 4.14693 27.6957C2.53187 24.0918 1.5 20.5724 1.5 17.5C1.5 8.35229 8.85229 1 18 1C27.1477 1 34.5 8.35228 34.5 17.5C34.5 20.5724 33.4681 24.0918 31.8531 27.6957C30.2439 31.2864 28.0896 34.8875 25.9209 38.1034C23.7542 41.3164 21.5854 44.1267 19.9576 46.1343C19.1476 47.1333 18.4726 47.9322 18 48.4815Z" fill="white" stroke="#26206A" stroke-width="2"/>
<rect width="25" height="6.31111" fill="black" fill-opacity="0" transform="translate(5.5 14.3667)"/>
<path d="M5.5 20.5V14.5H12.2V20.5H10.1V16.2H7.60001V20.5H5.5Z" fill="#26206A"/>
<path d="M13 14.5C13 14.5 16.6 14.2 19.1 14.5C19.1 14.5 20.2 17.5 19.1 20.5C19.1 20.5 15.9 20.9 13 20.5L13.4 18.9C13.4 18.9 16.5 19.2 17.5 18.9C17.5 18.9 17.6 18.5 17.6 18.3H14.8V16.8H17.5C17.5 16.8 17.6 16.4 17.3 16.2C17.3 16.2 15.2 16.1 13.3 16.2L13 14.5Z" fill="#26206A"/>
<path d="M20.3999 14.5V20.5H22.5999V18.3H23.3999L24.9999 20.5H27.7999L25.0999 17.3L27.5999 14.5H24.9999L23.2999 16.7L22.4999 16.6L22.5999 14.5H20.3999Z" fill="#26206A"/>
<path d="M28.3999 14.5001V16.4001H30.4999V14.6001C30.4999 14.5001 29.8999 14.3001 28.3999 14.5001Z" fill="#E5003D"/>
<path d="M28.3999 20.5V18.8H30.4999V20.5C30.4999 20.5 29.8999 20.7 28.3999 20.5Z" fill="#E5003D"/>
</svg>
