<svg width="36" height="50" viewBox="0 0 36 50" fill="none" xmlns="http://www.w3.org/2000/svg" preserveAspectRatio="xMidYMid meet">
<rect width="35" height="50" fill="black" fill-opacity="0" transform="translate(0.299805)"/>
<path d="M17.7998 48.4815C17.3272 47.9322 16.6522 47.1333 15.8422 46.1343C14.2144 44.1267 12.0457 41.3164 9.87889 38.1034C7.71021 34.8875 5.55586 31.2864 3.94673 27.6957C2.33168 24.0918 1.2998 20.5724 1.2998 17.5C1.2998 8.35229 8.65209 1 17.7998 1C26.8512 1 34.2998 8.356 34.2998 17.5C34.2998 20.5724 33.2679 24.0918 31.6529 27.6957C30.0437 31.2864 27.8894 34.8875 25.7207 38.1034C23.554 41.3164 21.3852 44.1267 19.7574 46.1343C18.9474 47.1333 18.2725 47.9322 17.7998 48.4815Z" fill="white" stroke="#F47822" stroke-width="2"/>
<rect width="22.9159" height="23.0672" fill="black" fill-opacity="0" transform="translate(6.32178 5.98291)"/>
<path d="M16.2999 6.10008C20.8999 5.40008 25.5999 7.90008 27.7999 11.9001C29.6999 15.3001 29.6999 19.6001 27.8999 23.0001C26.5999 25.4001 24.3999 27.3001 21.8999 28.3001C19.2999 29.3001 16.2 29.3001 13.6 28.3001C12.4 27.8001 11.9 26.2001 12.5 25.1001C13 24.0001 14.4 23.5001 15.5 23.9001C17.5 24.7001 19.9 24.4001 21.7 23.1001C24.3 21.4001 25.4 17.8001 24.1 14.9001C22.9 11.9001 19.4999 10.1001 16.3999 10.9001C14.3999 11.4001 12.6 12.8001 11.7 14.7001C10.9 16.3001 10.9 18.2001 11.5 19.9001C11.9 21.0001 11.3999 22.3001 10.3999 22.8001C9.29994 23.4001 7.59996 22.9001 7.09996 21.7001C6.19996 19.5001 6.09996 17.0001 6.69996 14.7001C7.69996 10.2001 11.6999 6.60008 16.2999 6.10008Z" fill="#F47822"/>
<path d="M16.9999 14.1001C18.0999 13.9001 19.1999 14.2001 20.0999 14.9001C21.2999 16.0001 21.5998 17.9001 20.7998 19.2001C19.9998 20.6001 18.2998 21.3001 16.7998 20.8001C15.3998 20.4001 14.2998 19.0001 14.2998 17.5001C14.1998 15.9001 15.4999 14.4001 16.9999 14.1001Z" fill="#F47822"/>
</svg>
