<svg width="60" height="60" viewBox="0 0 60 60" fill="none" xmlns="http://www.w3.org/2000/svg" preserveAspectRatio="xMidYMid meet">
<rect width="30" height="30" fill="black" fill-opacity="0" transform="scale(2)"/>
<rect width="60" height="60" rx="5" fill="#FF8C00"/>
<path d="M51.8825 51.3302C52.2486 51.7828 51.6791 52.2353 51.2723 51.8615C47.0421 48.2413 43.483 47.1985 39.9645 47.0608C38.0934 46.9821 36.2427 47.1592 34.2903 47.3166C33.9038 47.3559 33.5174 47.3756 33.1107 47.4149C32.948 47.4346 32.7649 47.4346 32.5819 47.4543C31.8904 47.533 31.1989 47.5723 30.5074 47.5723C27.1924 47.5723 24.0603 46.7853 21.213 45.231C18.3454 43.6767 16.0676 41.5124 14.4405 38.7776C12.8135 36.0625 12 33.0522 12 29.8452C12 26.6382 12.8135 23.6082 14.4405 20.8734C16.0676 18.1189 18.3047 15.935 21.1317 14.361C23.9383 12.787 27.0093 12 30.2634 12C33.6598 12 36.8121 12.787 39.6798 14.3413C42.5474 15.8956 44.8252 18.0796 46.4726 20.8144C48.12 23.5492 48.9335 26.5595 48.9335 29.7862C48.9335 31.0257 48.8115 32.2259 48.5674 33.4064C48.5267 33.5834 48.4861 33.7802 48.425 34.0163C48.3844 34.213 48.3234 34.4098 48.2623 34.5869H48.242C47.9166 35.61 47.3065 37.0462 46.1675 38.8957C46.0455 39.0924 45.9845 38.935 45.9642 38.8366C45.5574 36.1215 44.3371 34.0556 42.161 32.7177C42.1203 32.6981 42.0796 32.6784 42.0593 32.6587C41.7136 32.4423 41.3271 32.2455 40.9204 32.0881C40.4119 31.8717 39.8425 31.675 39.2527 31.5176C38.8866 31.4192 38.0731 31.4585 38.3578 31.1831C38.4798 31.065 40.2492 31.0454 42.3034 31.1634C42.344 31.1634 42.3847 31.1634 42.4254 31.1634C42.4661 30.7502 42.4864 30.3174 42.4864 29.8845C42.4864 26.5004 41.3271 23.7263 38.9476 21.444C36.5681 19.142 33.7615 18.0402 30.4057 18.0402C26.9686 18.0402 24.1824 19.1617 21.8842 21.4637C19.586 23.7656 18.4471 26.5201 18.4471 29.8452C18.4471 33.1703 19.6063 35.8854 21.9655 38.1874C24.3451 40.4893 27.0907 41.5911 30.3854 41.5911C30.5481 41.5911 30.6905 41.5911 30.8532 41.5911C30.8532 41.5518 30.8532 41.5124 30.8532 41.4731C30.6701 39.1318 30.6294 37.184 31.1176 37.971C31.3006 38.2464 31.4633 38.5022 31.6463 38.7579C32.2971 39.7023 32.948 40.4697 33.5784 41.1189C33.6191 41.1583 33.6394 41.178 33.6801 41.2173C36.019 43.5193 38.3171 44.0899 40.778 44.6604C40.839 44.6801 40.8797 44.6801 40.9407 44.6998C41.3475 44.7982 41.7542 44.8965 42.161 44.9949C45.049 45.7032 48.2013 46.9231 51.8825 51.3302ZM43.8084 37.184C43.4423 37.0856 43.1779 37.1643 43.0355 37.4004C42.8321 37.7545 42.9745 38.4628 43.3813 39.0728C43.788 39.7024 44.1541 40.0171 44.4185 40.0171C44.5202 40.0171 44.6015 39.9778 44.6625 39.8991C44.8252 39.722 44.8659 39.3679 44.8049 38.9153C44.7642 38.4432 44.4592 37.4791 43.8084 37.184ZM39.7205 40.0958C39.3544 40.0958 39.0493 40.2139 38.8459 40.45C38.3578 41.0206 38.5815 42.0437 39.3137 42.6733C39.6391 42.9487 40.1069 43.1061 40.5746 43.1061C41.0424 43.1061 41.4288 42.929 41.6729 42.6339C42.1 42.0633 41.8559 41.2763 41.0424 40.6074C40.656 40.2729 40.1882 40.0958 39.7205 40.0958Z" fill="white"/>
</svg>
