<svg width="30" height="30" viewBox="0 0 30 30" fill="none" xmlns="http://www.w3.org/2000/svg" preserveAspectRatio="xMidYMid meet">
<rect width="30" height="30" rx="5" fill="#1A75CF"/>
<path fill-rule="evenodd" clip-rule="evenodd" d="M11.2941 10.1798H17.2132C17.5735 10.1798 17.9338 10.2303 18.0882 10.3312C18.2941 10.4322 18.3456 10.4826 18.3971 10.5331C18.6029 10.9369 18.8088 11.5426 18.8088 12.552C18.8088 13.3596 18.6544 13.8644 18.4485 14.1672C18.1397 14.6719 17.7279 14.9243 17.2132 15.1262C16.6985 15.3281 16.0809 15.3281 15.8235 15.3281C15.7721 15.3281 15.7206 15.3281 15.7206 15.3281H15.6691H11.3456V10.1798H11.2941ZM17.3676 7H10.7794C10.5735 7 10.3676 7 10.1618 7.05048C9.85294 7.10095 9.54411 7.15143 9.08088 7.40379C8.77205 7.60569 8.46323 7.90853 8.30882 8.21137C8.05147 8.66563 8.05147 9.01893 8 9.32177C8 9.62461 8 9.87698 8 10.1798V10.2303V23H11.2426V18.6088H15.4632C15.5147 18.6088 15.6691 18.6088 15.7721 18.6088C15.8235 18.6088 15.8235 18.6088 15.875 18.6088L18.1912 23H21.8456L19.1176 17.8013C19.1691 17.7508 19.2206 17.7508 19.2721 17.7003C19.9926 17.2965 20.7132 16.6909 21.2279 15.7823C21.7426 14.9243 22 13.8139 22 12.552C22 11.0883 21.6397 9.92745 21.2279 9.0694C20.7647 8.21136 20.0441 7.65616 19.3235 7.35332C18.7059 7.10095 17.9853 7 17.3676 7Z" fill="white"/>
</svg>
