<svg width="60" height="60" viewBox="0 0 60 60" fill="none" xmlns="http://www.w3.org/2000/svg" preserveAspectRatio="xMidYMid meet">
<rect width="30" height="30" fill="black" fill-opacity="0" transform="scale(2)"/>
<rect width="60" height="60" rx="5" fill="#299D30"/>
<rect width="18" height="17" fill="black" fill-opacity="0" transform="translate(12 14) scale(2)"/>
<rect width="18" height="17" fill="black" fill-opacity="0" transform="translate(12 14) scale(2)"/>
<path d="M48 30.3103C48 40.0782 39.9417 48 30.0001 48C20.0596 48 12 40.0782 12 30.3103C12 29.9116 12.0167 29.5185 12.0421 29.1288L22.9399 35.2905L46.0236 22.2391C47.2869 24.659 48 27.4017 48 30.3103ZM22.9399 30.8382L12.7938 25.1028C12.5948 25.7386 12.4323 26.388 12.3068 27.0536L22.9399 33.0646L45.0327 20.5752C44.668 20.0352 44.2759 19.5132 43.8553 19.0137L22.9399 30.8382ZM42.4847 17.5655C41.9841 17.092 41.456 16.6465 40.9043 16.2328L22.9399 26.388L14.3645 21.5392C14.0409 22.0965 13.7467 22.6729 13.4841 23.2686L22.9399 28.6116L42.4847 17.5655ZM22.9399 24.1628L39.087 15.0361C38.4118 14.6478 37.7108 14.3012 36.9834 14L22.9399 21.9379L16.6868 18.4027C16.2406 18.8836 15.8227 19.3921 15.432 19.9181L22.9399 24.1628Z" fill="white"/>
</svg>
