<svg width="35" height="50" viewBox="0 0 35 50" fill="none" xmlns="http://www.w3.org/2000/svg" preserveAspectRatio="xMidYMid meet">
<rect width="35" height="50" fill="black" fill-opacity="0"/>
<path d="M17.5 48.4815C17.0274 47.9322 16.3524 47.1333 15.5424 46.1343C13.9146 44.1267 11.7459 41.3164 9.57909 38.1034C7.41041 34.8875 5.25606 31.2864 3.64693 27.6957C2.03187 24.0918 1 20.5724 1 17.5C1 8.35229 8.35229 1 17.5 1C26.5514 1 34 8.356 34 17.5C34 20.5724 32.9681 24.0918 31.3531 27.6957C29.7439 31.2864 27.5896 34.8875 25.4209 38.1034C23.2542 41.3164 21.0854 44.1267 19.4576 46.1343C18.6476 47.1333 17.9726 47.9322 17.5 48.4815Z" fill="white" stroke="#219BD6" stroke-width="2"/>
<path d="M26 17.5C26 22.1944 22.1944 26 17.5 26C12.8056 26 9 22.1944 9 17.5C9 12.8056 12.8056 9 17.5 9C22.1944 9 26 12.8056 26 17.5Z" fill="#219BD6"/>
</svg>
