<svg width="36" height="50" viewBox="0 0 36 50" fill="none" xmlns="http://www.w3.org/2000/svg" preserveAspectRatio="xMidYMid meet">
<rect width="35" height="50" fill="black" fill-opacity="0" transform="translate(0.799805)"/>
<path d="M18.2998 48.4815C17.8272 47.9322 17.1522 47.1333 16.3422 46.1343C14.7144 44.1267 12.5457 41.3164 10.3789 38.1034C8.21021 34.8875 6.05586 31.2864 4.44673 27.6957C2.83168 24.0918 1.7998 20.5724 1.7998 17.5C1.7998 8.35229 9.15209 1 18.2998 1C27.3512 1 34.7998 8.356 34.7998 17.5C34.7998 20.5724 33.7679 24.0918 32.1529 27.6957C30.5437 31.2864 28.3894 34.8875 26.2207 38.1034C24.054 41.3164 21.8852 44.1267 20.2574 46.1343C19.4474 47.1333 18.7725 47.9322 18.2998 48.4815Z" fill="white" stroke="#D52225" stroke-width="2"/>
<path d="M27.7997 8.5001C27.7997 8.5001 22.5998 4.2001 14.4998 9.3001C14.4998 9.3001 8.29979 13.7001 8.89979 21.1001C9.09979 23.3001 10.5998 25.2001 12.6998 25.7001C13.6998 26.0001 14.9997 26.1001 16.5997 26.0001C22.8997 25.5001 23.6998 19.9001 23.6998 19.9001C23.6998 19.9001 20.9998 22.5001 16.9998 22.7001C12.8998 22.9001 11.4997 15.9001 19.0997 11.1001C19.0997 11.1001 23.2997 8.4001 26.0997 13.0001L27.7997 8.5001Z" fill="#D52225"/>
</svg>
