<svg width="30" height="30" viewBox="0 0 30 30" fill="none" xmlns="http://www.w3.org/2000/svg" preserveAspectRatio="xMidYMid meet">
<rect width="30" height="30" rx="5" fill="#FFE600"/>
<path d="M26.689 14.0262L27 13.0288L25.9699 13.0614C25.4893 13.0423 25.0252 12.8809 24.6365 12.5978C24.6826 12.5978 24.7325 12.6083 24.7747 12.6083C25.4064 12.6083 26.0227 12.2243 26.2627 11.6838L26.7062 10.7008C26.3503 10.7034 25.9947 10.6823 25.6416 10.6374C25.6416 10.6374 25.2365 10.5846 24.7776 10.1123C24.6251 9.9497 24.4411 9.81986 24.2367 9.73073C24.0324 9.6416 23.812 9.59505 23.5891 9.59392C23.4128 9.59454 23.2376 9.62239 23.0698 9.67648C23.0946 9.59657 23.1142 9.51511 23.1283 9.43264C23.2694 8.512 22.6781 7.81024 22.6781 7.8112L21.9024 6.8512L21.4224 7.9792C21.3459 8.13892 21.2287 8.27567 21.0826 8.37568C20.9996 7.97558 20.8014 7.6085 20.5123 7.31968C20.2714 7.0737 19.9832 6.87889 19.6652 6.74693C19.3472 6.61496 19.0058 6.54855 18.6614 6.55168C18.5406 6.55088 18.4199 6.55954 18.3005 6.5776L17.3616 6.74944C17.4415 6.43175 17.5694 6.1281 17.7408 5.84896L18.2573 5.04448L16.9584 5.19712L16.5446 4.31872L15.743 4.73344L15 4L14.2637 4.73344L13.464 4.31872L13.0512 5.19712L11.7523 5.04928L12.2688 5.85376C12.439 6.13134 12.5656 6.43342 12.6442 6.74944L11.7514 6.57376L11.7206 6.56896C11.5974 6.54986 11.4729 6.54056 11.3482 6.54112C11.0041 6.53803 10.663 6.60446 10.3453 6.73644C10.0276 6.86841 9.73979 7.0632 9.4992 7.30912C9.20818 7.59731 9.00794 7.96442 8.9232 8.36512C8.77968 8.26855 8.66386 8.13619 8.5872 7.98112L8.1072 6.84736L7.32 7.81888C7.224 7.94368 6.74976 8.6032 6.8784 9.43264C6.89247 9.51505 6.9117 9.59649 6.936 9.67648C6.76855 9.62215 6.59364 9.5943 6.4176 9.59392C6.19539 9.59524 5.97576 9.6416 5.77198 9.73021C5.5682 9.81881 5.38451 9.94783 5.232 10.1094C4.77024 10.5808 4.368 10.6336 4.37568 10.6336C4.02051 10.6865 3.66133 10.7077 3.3024 10.697L3.74304 11.68C3.9888 12.2243 4.60032 12.6045 5.23104 12.6045C5.27904 12.6045 5.32704 12.5978 5.37024 12.5939C4.98468 12.8749 4.52493 13.0362 4.04832 13.0576L3 13.0288L3.31776 14.0253C3.48 14.5389 4.0128 15.3894 5.03616 15.4854C4.9248 15.952 4.67808 16.4752 4.13568 16.7008L3.35424 17.0214L3.78048 17.7635C3.95393 18.0319 4.19257 18.2519 4.47411 18.403C4.75565 18.5541 5.0709 18.6313 5.3904 18.6275C5.55977 18.6273 5.72867 18.6096 5.8944 18.5747C5.93661 18.7599 5.98819 18.9429 6.04896 19.1229C6.288 19.8362 6.0816 20.3325 6.07968 20.3382L5.688 21.1494L6.552 21.376C6.74716 21.4256 6.94774 21.4508 7.14912 21.4509C7.29095 21.4517 7.4324 21.4359 7.57056 21.4038C7.66894 21.3795 7.76524 21.3474 7.85856 21.3078C7.96933 21.5067 8.10551 21.6903 8.26368 21.8541C8.81568 22.4205 9.59808 22.7075 10.5888 22.7075L11.2963 22.6979L9.8352 23.3056L10.945 23.8422C11.3903 24.0676 11.8469 24.2701 12.313 24.449L12.1747 24.8282L12.5587 25.0029C12.5923 25.0182 13.3267 25.3475 14.5507 25.4176C14.5507 25.4176 14.8454 25.431 15.0086 25.431C15.1718 25.431 15.4627 25.4166 15.4627 25.4166C16.6771 25.3446 17.4077 25.0182 17.4413 25.0029L17.8253 24.8282L17.6851 24.4442C18.1572 24.2657 18.6199 24.0632 19.0714 23.8374L20.16 23.3085L18.7037 22.7008L19.4141 22.7104C20.4067 22.7104 21.1891 22.4224 21.7402 21.856C21.8982 21.6927 22.0341 21.5094 22.1443 21.3107C22.2378 21.35 22.334 21.3821 22.4323 21.4067C22.5702 21.4382 22.7113 21.4537 22.8528 21.4528C23.0518 21.4524 23.2501 21.4279 23.4432 21.3798L24.3072 21.1514L23.9299 20.3574C23.9213 20.3373 23.7149 19.84 23.9539 19.1267C24.0144 18.9443 24.0662 18.7619 24.1075 18.5795C24.2742 18.6145 24.4441 18.6322 24.6144 18.6323C24.9368 18.6368 25.255 18.5583 25.5382 18.4043C25.8215 18.2503 26.0604 18.026 26.232 17.753L26.6544 17.0186L25.873 16.6979C25.3296 16.4723 25.0838 15.9491 24.9734 15.4835C25.9834 15.3952 26.5248 14.5437 26.6909 14.0272L26.689 14.0262ZM12.7114 7.09696H12.7008L12.7094 7.08544L12.7114 7.09696Z" fill="white"/>
<path d="M15 7.05283C14.1725 7.05283 13.5514 7.32451 13.417 7.64419L15 8.26915L16.584 7.64419C16.4496 7.32547 15.8294 7.05379 15 7.05283Z" fill="white"/>
<path d="M15.0192 23.5955H14.9875C14.4732 23.5923 13.9611 23.5278 13.4621 23.4035L13.0618 24.4864C14.3303 24.8522 15.6764 24.8522 16.945 24.4864L16.5456 23.4035C16.0465 23.5277 15.5345 23.5921 15.0202 23.5955" fill="white"/>
<path d="M18.0489 22.5174C17.6147 22.7342 17.1632 22.9147 16.6992 23.057L17.0237 23.9517C17.5411 23.8151 18.0437 23.6277 18.5241 23.392L17.8521 23.1683L18.0489 22.5174Z" fill="white"/>
<path d="M11.9568 22.5174L12.1565 23.1683L11.4845 23.392C11.9647 23.6274 12.467 23.8148 12.984 23.9517L13.3094 23.057C12.8454 22.9146 12.394 22.7341 11.9597 22.5174" fill="white"/>
<path d="M15 6.01695C15.5943 6.01049 16.1809 6.15202 16.7069 6.42879C16.7576 6.25737 16.8192 6.08935 16.8912 5.92575L16.7127 5.94687L16.5264 5.96607L16.4477 5.79615L16.2096 5.29311L15.7757 5.51871L15.6067 5.60511L15.4714 5.47167L15 5.00607L14.5296 5.47263L14.3952 5.60607L14.2263 5.51967L13.7904 5.29407L13.56 5.79615L13.4794 5.96607L13.2931 5.94687L13.1155 5.92575C13.1873 6.08948 13.2488 6.25748 13.2999 6.42879C13.8239 6.15333 14.408 6.01184 15 6.01695Z" fill="white"/>
<path d="M24.529 11.8278C24.6077 11.8549 24.6905 11.8685 24.7738 11.8681C24.9405 11.8668 25.1037 11.8206 25.2464 11.7345C25.3892 11.6484 25.5061 11.5254 25.585 11.3785C25.585 11.3785 24.9379 11.3392 24.241 10.6326C24.1581 10.54 24.0568 10.4657 23.9435 10.4145C23.8303 10.3632 23.7076 10.3362 23.5834 10.335C23.3892 10.3381 23.1996 10.3952 23.0362 10.5001C23.8771 10.9475 24.048 11.6656 24.527 11.8278" fill="white"/>
<path d="M5.23104 11.8682C5.31403 11.8688 5.39651 11.8551 5.47488 11.8278C5.95488 11.6666 6.12768 10.9485 6.96768 10.5011C6.80446 10.3964 6.61532 10.3393 6.42144 10.336C6.29703 10.3372 6.17423 10.3643 6.06085 10.4155C5.94748 10.4667 5.846 10.541 5.76288 10.6336C5.06784 11.3402 4.41888 11.3795 4.41888 11.3795C4.4978 11.5263 4.61476 11.6491 4.75749 11.7351C4.90022 11.821 5.06346 11.867 5.23008 11.8682" fill="white"/>
<path d="M24.7574 14.7462H24.7997C25.681 14.7462 25.9786 13.8025 25.9786 13.8025H25.9613C25.497 13.787 25.0417 13.6702 24.6271 13.4605C24.2126 13.2507 23.8489 12.953 23.5613 12.5881C22.9517 11.8144 22.4525 11.1337 21.4666 10.8659L21.3706 10.8486L21.3494 10.7526C21.3226 10.6019 21.4253 10.4646 21.6595 10.3081C23.0208 9.41727 22.0963 8.27967 22.0963 8.27967C22.0963 8.27967 21.7123 9.18879 20.8378 9.18879H20.7734C20.6768 9.18644 20.5805 9.17649 20.4854 9.15903L20.3251 9.12831C20.3251 9.12831 20.5728 8.45631 19.9747 7.83423C19.8038 7.65871 19.599 7.51972 19.3728 7.42566C19.1465 7.3316 18.9036 7.28444 18.6586 7.28703C18.5711 7.28612 18.4837 7.29319 18.3974 7.30815C18.6979 7.70079 18.9158 8.35359 18.5683 8.75583C18.2678 9.10143 17.5354 9.11871 17.5354 9.63327C17.5354 9.85215 17.7399 10.1065 18.1056 10.335C19.2067 11.0291 20.3002 11.9497 20.7552 13.1824C21.3235 14.7184 20.6832 15.7417 19.7693 16.3273C19.9678 16.4951 20.2125 16.5989 20.4711 16.6249C20.5555 16.6336 20.6381 16.6374 20.7149 16.6374C21.5923 16.6374 22.0454 16.2265 22.0454 16.2265C21.9695 16.6328 21.7862 17.0114 21.5146 17.3229C21.0931 17.8096 20.5411 18.0976 19.6973 18.1091C19.6995 18.2484 19.7316 18.3856 19.7914 18.5115C19.8512 18.6374 19.9373 18.7489 20.0438 18.8387C20.2829 19.0528 20.8349 19.1267 20.8349 19.1267C20.8349 19.1267 19.8019 19.336 19.6829 20.8624C19.6205 21.6889 19.4093 21.9769 19.4093 21.9769H19.4275C21.8275 21.9769 21.7642 19.9206 21.7642 19.9206C21.8262 20.1093 21.9355 20.279 22.0817 20.4134C22.2279 20.5479 22.4061 20.6426 22.5994 20.6886C22.681 20.709 22.7648 20.719 22.849 20.7184C22.9846 20.7173 23.1196 20.7002 23.2512 20.6675C23.2512 20.6675 22.9008 19.9293 23.2512 18.8953C23.4216 18.4165 23.5035 17.9107 23.4931 17.4025C23.4931 17.4025 23.8157 17.8912 24.6173 17.895H24.625C24.8146 17.8984 25.0021 17.8538 25.1699 17.7653C25.3378 17.6769 25.4805 17.5475 25.585 17.3891C23.9866 16.7257 24.145 14.584 24.145 14.584C24.3293 14.6966 24.5415 14.7552 24.7574 14.7529V14.7462ZM24.2774 16.9907C23.6266 16.6701 23.2157 15.8185 23.1168 15.5123C23.0083 17.2 22.1846 18.3712 21.2218 19.4992C20.9282 19.8381 20.7003 20.2288 20.5498 20.6512C20.6288 20.2246 20.8103 19.8237 21.0787 19.4829C21.9773 18.4029 22.8317 17.0589 22.8951 15.5046C22.9446 14.5616 22.7106 13.6254 22.2231 12.8166C22.4669 13.5712 22.4323 14.4957 21.6058 15.3587C21.6058 15.3587 23.2522 13.3869 20.9511 11.3641C20.0304 10.5961 19.0224 10.1161 18.504 9.78303C20.3779 10.3945 21.2938 9.72159 21.2938 9.72159C20.6957 10.2409 19.92 10.2313 19.44 10.1565C19.5706 10.2198 19.7059 10.2861 19.8518 10.3648C21.432 11.223 22.8528 12.6352 23.0947 14.5888V14.5734C23.4624 16.4934 24.2803 16.9869 24.2803 16.9869" fill="white"/>
<path d="M9.1699 19.12C9.1699 19.12 9.7219 19.0509 9.96094 18.832C10.0676 18.7423 10.1537 18.6307 10.2135 18.5048C10.2733 18.3789 10.3053 18.2417 10.3075 18.1024C9.46366 18.0909 8.91166 17.8038 8.4835 17.3161C8.21318 17.004 8.03064 16.6257 7.95454 16.2198C7.95454 16.2198 8.41342 16.6374 9.28894 16.6374C9.36766 16.6374 9.44926 16.6374 9.53374 16.6249C9.79293 16.5989 10.0382 16.4952 10.2374 16.3273C9.3235 15.7408 8.68222 14.7174 9.25054 13.1814C9.70558 11.9488 10.7981 11.0272 11.9001 10.3341C12.2659 10.1056 12.4704 9.85406 12.4704 9.6323C12.4704 9.11678 11.7389 9.10046 11.4384 8.7539C11.0909 8.35166 11.3088 7.6979 11.6083 7.30622C11.5224 7.2916 11.4353 7.28485 11.3481 7.28606C11.1033 7.28354 10.8605 7.33074 10.6344 7.4248C10.4084 7.51886 10.2037 7.65781 10.0329 7.83326C9.43198 8.4515 9.68158 9.12542 9.68158 9.12542L9.52126 9.1571C9.42615 9.1743 9.32987 9.18425 9.23326 9.18686H9.1699C8.29822 9.18686 7.91134 8.27774 7.91134 8.27774C7.91134 8.27774 6.98686 9.41438 8.34814 10.3062C8.58238 10.4589 8.6851 10.6 8.65822 10.7507L8.6371 10.8467L8.5411 10.864C7.55614 11.1318 7.05598 11.8125 6.44638 12.5862C6.15899 12.9513 5.79528 13.2491 5.38072 13.4589C4.96615 13.6687 4.51074 13.7853 4.04638 13.8006H4.02814C4.02814 13.8006 4.3267 14.7443 5.20798 14.7443H5.25022C5.46618 14.7465 5.67841 14.688 5.8627 14.5753C5.8627 14.5753 6.01918 16.7171 4.4227 17.3805C4.52721 17.5388 4.66999 17.6681 4.8378 17.7566C5.00561 17.845 5.19303 17.8896 5.3827 17.8864H5.39038C6.19198 17.8864 6.51454 17.3929 6.51454 17.3929C6.50403 17.901 6.58567 18.4068 6.7555 18.8857C7.10302 19.9197 6.7555 20.6579 6.7555 20.6579C6.88684 20.6902 7.02152 20.7069 7.15678 20.7078C7.24055 20.7088 7.3241 20.6992 7.40542 20.679C7.59857 20.6328 7.7767 20.538 7.92288 20.4036C8.06907 20.2692 8.17844 20.0996 8.24062 19.911C8.24062 19.911 8.17918 21.9673 10.5773 21.9673H10.5945C10.5945 21.9673 10.3853 21.6793 10.3229 20.8528C10.2096 19.3264 9.17086 19.1171 9.17086 19.1171L9.1699 19.12ZM8.78686 19.4896C7.82686 18.3616 7.0003 17.1904 6.89182 15.5027C6.79582 15.8089 6.38302 16.6605 5.7331 16.9811C5.7331 16.9811 6.55006 16.4886 6.91774 14.5677V14.583C7.16062 12.6275 8.58046 11.2144 10.1616 10.359C10.3065 10.2803 10.4429 10.2141 10.5725 10.1507C10.0925 10.2256 9.31678 10.2342 8.7187 9.71582C8.7187 9.71582 9.63358 10.3878 11.5027 9.77726C10.9862 10.1094 9.97918 10.5894 9.05854 11.3574C6.75454 13.3792 8.40286 15.352 8.40286 15.352C7.57534 14.488 7.53886 13.5645 7.78558 12.8089C7.29713 13.6173 7.06299 14.5538 7.11358 15.4969C7.17598 17.0512 8.03038 18.3952 8.92702 19.4752C9.1964 19.8154 9.37894 20.216 9.45886 20.6425C9.30755 20.2205 9.07974 19.83 8.78686 19.4905" fill="white"/>
<path d="M13.2297 11.6003C13.2691 11.6426 13.3075 11.6886 13.3449 11.7347C13.3536 11.7453 13.3622 11.7549 13.3709 11.7674C13.4054 11.8134 13.44 11.8634 13.4736 11.9114C13.4813 11.921 13.488 11.9325 13.4966 11.944C13.5369 12.0045 13.5744 12.0678 13.6128 12.136C13.9584 12.7331 14.5123 13.0902 15.0029 13.0912C15.4934 13.0922 16.0473 12.7331 16.3939 12.136C16.4323 12.0698 16.4707 12.0054 16.511 11.944L16.5283 11.9181C16.5629 11.8662 16.5984 11.8163 16.6358 11.7683L16.6589 11.7395C16.6973 11.6915 16.7376 11.6435 16.7779 11.6022L16.7971 11.583C16.9776 11.394 17.2063 11.2579 17.4585 11.1894L17.3366 11.1184H17.3299L16.8432 10.8362L16.343 10.5482L15.0067 11.2758L13.6704 10.5482L13.1702 10.8362L12.6825 11.1184H12.6768L12.5529 11.1894C12.8051 11.2576 13.0338 11.3933 13.2144 11.5821C13.2221 11.5888 13.2269 11.5974 13.2355 11.6032L13.2297 11.6003ZM14.4672 11.5446H15.5971V11.9286C15.4646 11.7654 15.2054 11.799 15.2054 11.799V12.3578C15.2054 12.3578 15.215 12.6333 15.312 12.7514H14.7523C14.8483 12.6323 14.8589 12.3578 14.8589 12.3578V11.799C14.8589 11.799 14.6006 11.7654 14.4672 11.9286V11.5446Z" fill="white"/>
<path d="M14.8867 10.7901V8.51873L13.4409 8.02817L13.8249 10.2285L14.8867 10.7901ZM14.5766 9.07745V9.43745L14.5065 9.40577C14.4008 9.36843 14.3031 9.31143 14.2185 9.23777C13.9229 9.00833 13.9171 8.79617 13.9171 8.79617L14.5766 9.07745Z" fill="white"/>
<path d="M16.1827 10.2295L16.5667 8.02914L15.1267 8.5197V10.7911L16.1827 10.2295ZM15.4291 9.07746L16.0867 8.80098C16.0867 8.80098 16.0809 9.01314 15.7843 9.24258C15.6999 9.3164 15.6021 9.37342 15.4963 9.41058L15.4262 9.44226L15.4291 9.07746Z" fill="white"/>
<path d="M12.8429 16.0537C12.9716 16.0952 13.1061 16.116 13.2413 16.1152C13.2413 16.1046 13.2499 16.0912 13.2538 16.0749C13.2618 16.0487 13.2686 16.0221 13.2739 15.9952C13.2953 15.8763 13.3072 15.7559 13.3094 15.6352C13.228 15.5875 13.1615 15.518 13.1174 15.4345C13.0995 15.3851 13.0665 15.3426 13.0231 15.313C12.9797 15.2833 12.9281 15.2681 12.8755 15.2694C12.7438 15.2807 12.617 15.3249 12.5069 15.3981C12.4889 15.5283 12.5111 15.6609 12.5707 15.7781C12.6302 15.8953 12.7242 15.9915 12.84 16.0537" fill="white"/>
<path d="M16.0397 14.8489C15.7718 15.1369 15.2457 15.6496 15.2208 15.6745L15.1891 15.7062L13.5283 15.6774C13.5268 15.8148 13.5087 15.9514 13.4745 16.0845L13.4611 16.1373L15.4358 16.4925C15.6412 16.3485 16.2038 15.9357 16.4265 15.7744C16.2907 15.5664 16.2408 15.3138 16.2873 15.0697C16.1928 15.01 16.1091 14.9347 16.0397 14.847" fill="white"/>
<path d="M16.2643 12.8522C15.8803 13.2362 15.5146 13.3725 15.1872 13.4051C15.1272 13.4114 15.067 13.4146 15.0067 13.4147H15C14.9397 13.4146 14.8795 13.4114 14.8195 13.4051C14.7598 13.3999 14.7004 13.3906 14.6419 13.3773C14.6034 13.5208 14.6135 13.6731 14.6707 13.8103C14.7133 13.8926 14.772 13.9655 14.8434 14.0246C14.9149 14.0836 14.9975 14.1276 15.0864 14.1539L15.1555 14.1808V14.2557C15.1632 14.407 15.2205 14.5516 15.3185 14.6672C15.4165 14.7827 15.5499 14.8628 15.6979 14.8951C15.7834 14.8067 15.8621 14.7261 15.9197 14.6599C15.8122 14.4064 15.8688 14.1482 16.0243 14.0215C16.0176 14.0483 15.9494 14.6819 16.4573 14.9181L16.5408 14.9575L16.5158 15.0467C16.5072 15.0736 16.3382 15.6871 16.9536 15.9107L17.0621 15.952L17.016 16.0615C16.9427 16.2228 16.9347 16.4062 16.9936 16.5733C17.0524 16.7404 17.1736 16.8783 17.3318 16.9581H18.5645V15.9789C18.3967 15.9572 18.2405 15.8817 18.1193 15.7636C17.9981 15.6456 17.9185 15.4914 17.8925 15.3242C17.7072 15.3004 17.5387 15.2049 17.423 15.0583C17.3488 14.9634 17.3057 14.8479 17.2997 14.7276C17.2936 14.6073 17.325 14.4881 17.3894 14.3863C17.3922 14.5845 17.4646 14.7755 17.5939 14.9258C17.7007 15.0365 17.8439 15.1047 17.9971 15.1178L18.0864 15.1255L18.0941 15.2215C18.0941 15.2407 18.145 15.6909 18.5626 15.761V13.7575C18.5741 13.4453 18.6414 13.1378 18.7613 12.8493L16.2643 12.8522Z" fill="white"/>
<path d="M12.9475 13.768L12.9139 15.041L13.0589 15.063L13.4131 13.8419L13.2336 13.4656L12.9475 13.768Z" fill="white"/>
<path d="M16.848 19.6067C16.8595 19.6054 16.8711 19.6054 16.8825 19.6067C17.1024 19.6701 17.1581 20.463 17.544 20.5341C17.5781 20.5412 17.6128 20.5447 17.6477 20.5446C17.6969 20.5445 17.7454 20.5324 17.7889 20.5093C17.8324 20.4862 17.8696 20.4529 17.8973 20.4121C17.8973 20.4121 17.7053 20.1069 17.5574 19.9014C17.3654 19.6317 17.2147 19.3062 16.8547 19.3062H16.824C16.7553 19.3086 16.6886 19.3306 16.632 19.3696C16.5122 19.2906 16.3722 19.2479 16.2288 19.2467C16.0041 19.2467 15.8285 19.3504 15.7411 19.3504L14.9385 19.2707C14.8299 19.2434 14.7364 19.1745 14.6784 19.0787L14.6649 19.0576C14.6649 19.0355 14.6649 19.0134 14.6649 18.9933C14.6381 18.3366 14.1302 18.0563 13.9488 18.0515C13.9488 18.0515 13.9699 17.9267 13.9209 17.8797L13.7433 18.0947L13.1673 17.8067L13.5821 18.2867L13.2317 18.6803C13.2142 18.6969 13.2027 18.7188 13.1991 18.7426C13.1954 18.7664 13.1998 18.7908 13.2115 18.8118L13.3632 18.9462L13.5552 18.8291C13.57 18.8214 13.5866 18.8181 13.6032 18.8195C13.656 18.8195 13.7366 18.8329 13.8077 18.8329C13.8787 18.8329 13.9536 18.8166 13.9622 18.7427C13.9382 18.9865 13.7126 19.4089 13.8605 19.7411L13.9699 19.9917L13.2566 19.9014L12.9245 20.4621C12.8217 20.6483 12.8064 20.8461 12.9043 20.9603L13.0281 21.1158C13.1151 21.0258 13.187 20.9224 13.2413 20.8096L13.1846 20.7472C13.1638 20.7275 13.1507 20.701 13.1477 20.6724C13.1447 20.6439 13.152 20.6153 13.1683 20.5917L13.3766 20.2461L14.2137 20.4429L14.2579 20.367C14.2807 20.3272 14.3141 20.2946 14.3545 20.2728C14.3949 20.2511 14.4406 20.2412 14.4864 20.2441C14.5247 20.2447 14.5629 20.2482 14.6006 20.2547C14.8203 20.2994 15.0437 20.3235 15.2678 20.3267C15.5481 20.3267 15.8275 20.2768 15.9753 20.1097C16.2787 20.559 16.8931 20.631 16.8451 20.8595L16.6829 21.6275C16.7894 21.6275 16.8931 21.616 16.991 21.6025L17.1446 20.8009C17.1619 20.7136 17.1782 20.5965 17.1782 20.5965C17.0655 20.4977 16.9684 20.3825 16.8902 20.2547C16.7817 20.0464 16.8403 19.9369 16.7395 19.6662C16.7495 19.6478 16.7641 19.6323 16.782 19.6213C16.7999 19.6104 16.8203 19.6043 16.8413 19.6038L16.848 19.6067ZM13.7136 18.4797C13.7038 18.4794 13.6942 18.4772 13.6854 18.4731C13.6765 18.469 13.6686 18.4631 13.6621 18.4558C13.6556 18.4485 13.6507 18.44 13.6477 18.4307C13.6446 18.4214 13.6435 18.4116 13.6445 18.4019C13.6451 18.3924 13.6476 18.383 13.6518 18.3744C13.6561 18.3659 13.662 18.3582 13.6692 18.352C13.6765 18.3457 13.6849 18.341 13.694 18.338C13.7031 18.335 13.7127 18.3339 13.7222 18.3347C13.7317 18.3353 13.7411 18.3377 13.7496 18.3419C13.7582 18.346 13.7659 18.3519 13.7722 18.359C13.7785 18.3661 13.7834 18.3744 13.7865 18.3834C13.7896 18.3924 13.791 18.402 13.7904 18.4115C13.7898 18.421 13.7874 18.4303 13.7832 18.4389C13.7791 18.4475 13.7732 18.4552 13.7661 18.4615C13.759 18.4678 13.7507 18.4727 13.7417 18.4758C13.7326 18.4789 13.7231 18.4802 13.7136 18.4797Z" fill="white"/>
<path d="M12.5702 20.3354C12.5702 20.3354 12.8477 20.2211 12.8726 20.1434L12.8352 20.0474C12.8198 20.0216 12.8142 19.9912 12.8193 19.9616C12.8244 19.932 12.8399 19.9052 12.863 19.8861L13.1626 19.6787L13.6627 19.7747C13.6066 19.698 13.5779 19.6047 13.5811 19.5098L13.1011 19.409L12.6509 19.6835C12.5722 19.7417 12.5153 19.8246 12.4894 19.919C12.4635 20.0133 12.47 20.1136 12.5078 20.2038L12.5702 20.3354Z" fill="white"/>
<path d="M16.1117 21.641C16.2009 21.641 16.3037 21.6362 16.4093 21.6362C16.4093 21.6362 16.6665 20.8826 16.6819 20.8586C16.4905 20.7694 16.3037 20.6707 16.1222 20.5629C16.199 20.6771 16.3843 20.8077 16.3478 20.9085L16.1117 21.641Z" fill="white"/>
<path d="M18.5635 17.1731H11.4422V19.8515C11.4422 20.9469 12.2352 21.6333 13.4045 21.6333C14.3818 21.6333 14.64 21.6717 15.0029 22.0317C15.2534 21.7821 15.4608 21.688 15.8861 21.6534L15.8957 21.6122L16.1203 20.9181C16.1078 20.9027 15.7363 20.4861 15.7363 20.4861C15.5831 20.5324 15.4229 20.5516 15.263 20.5427C15.0258 20.5401 14.7893 20.5157 14.5565 20.4698C14.5322 20.4641 14.5074 20.4612 14.4826 20.4611C14.4509 20.4611 14.4489 20.4611 14.4403 20.4794L14.3962 20.5533L14.3146 20.6877L14.1609 20.6522L13.4774 20.4909L13.3814 20.6454L13.3958 20.6618L13.4794 20.7578L13.4419 20.8768C13.3794 21.0203 13.2901 21.1507 13.1789 21.2608L13.008 21.4442L12.8525 21.2522L12.7354 21.1053C12.6729 21.026 12.6324 20.9316 12.6179 20.8317C12.6034 20.7318 12.6155 20.6298 12.6528 20.536H12.6461L12.4541 20.6157L12.3677 20.4237L12.3072 20.2902C12.2483 20.1542 12.2375 20.0021 12.2768 19.8591C12.3161 19.7161 12.403 19.5909 12.5232 19.504L13.0733 19.1939L13.5965 19.2966C13.609 19.2467 13.6281 19.0662 13.6425 19.0211C13.6326 19.0206 13.6227 19.0206 13.6128 19.0211L13.3181 19.1334L13.0301 18.9328C13.015 18.9192 13.0027 18.9027 12.994 18.8842C12.9853 18.8658 12.9803 18.8459 12.9793 18.8256C12.9783 18.8052 12.9814 18.7849 12.9883 18.7657C12.9952 18.7466 13.0058 18.729 13.0195 18.7139L13.3008 18.2867L12.5866 17.391L13.6838 17.8413L13.7568 17.751L13.9046 17.5734L14.0726 17.7328C14.1167 17.776 14.1474 17.831 14.1609 17.8912C14.4633 18.0093 15.0048 18.3568 15.0528 18.9213L14.8829 18.9894C14.9037 19.018 14.9314 19.0408 14.9635 19.0557L15.7469 19.1325C15.767 19.1325 15.791 19.12 15.8189 19.1123C15.9522 19.0622 16.0931 19.0349 16.2355 19.0317C16.3772 19.0331 16.5169 19.0659 16.6445 19.1277C16.7013 19.107 16.7608 19.0947 16.8211 19.0912H16.8586C17.2781 19.0912 17.4864 19.4042 17.6534 19.6547C17.6813 19.6979 17.7091 19.7382 17.7379 19.7795C17.8838 19.9859 18.0758 20.2883 18.0835 20.3018L18.1699 20.4362L18.0643 20.559C18.0156 20.6226 17.953 20.674 17.8812 20.7095C17.8095 20.7449 17.7306 20.7634 17.6505 20.7635C17.6028 20.7632 17.5553 20.7584 17.5085 20.7491C17.4656 20.7408 17.4238 20.7279 17.3837 20.7107C17.3779 20.752 17.3693 20.801 17.3616 20.8442L17.2243 21.5613C18.0461 21.3597 18.5683 20.7395 18.5683 19.8515L18.5635 17.1731Z" fill="#FFE60D"/>
<path d="M11.4423 16.9571H16.9815C16.8718 16.8417 16.7951 16.6989 16.7595 16.5437C16.7239 16.3885 16.7306 16.2266 16.7789 16.0749C16.7043 16.0389 16.6349 15.9931 16.5725 15.9385C16.3555 16.0979 15.6951 16.5789 15.5223 16.6998L15.4848 16.7248L13.3114 16.3321H13.272C13.2011 16.3321 13.1303 16.328 13.0599 16.3197C13.0494 16.3664 13.0234 16.4082 12.9861 16.4382C12.9487 16.4682 12.9023 16.4846 12.8544 16.4848C12.8429 16.4859 12.8314 16.4859 12.8199 16.4848C12.764 16.4754 12.7141 16.4443 12.681 16.3982C12.6479 16.3522 12.6343 16.295 12.6432 16.239L12.6519 16.192C12.5156 16.0939 12.4109 15.9582 12.3506 15.8015C12.2902 15.6448 12.2768 15.4739 12.312 15.3097L12.3207 15.2704L12.3523 15.2473C12.3523 15.2473 12.3946 15.2185 12.4483 15.1869L12.2899 15.1629C12.2619 15.1579 12.2368 15.1422 12.2201 15.1191C12.2035 15.096 12.1965 15.0672 12.2007 15.039C12.2028 15.0249 12.2077 15.0114 12.215 14.9992C12.2224 14.987 12.2322 14.9764 12.2437 14.968C12.2552 14.9596 12.2683 14.9536 12.2822 14.9503C12.296 14.947 12.3104 14.9465 12.3245 14.9488L12.696 15.0054L12.7306 13.6806L13.2903 13.0883L13.6397 13.8237L13.272 15.1014L13.6042 15.1542C13.6324 15.1589 13.6576 15.1746 13.6743 15.1978C13.691 15.221 13.6979 15.2498 13.6935 15.2781C13.6893 15.3032 13.6763 15.3261 13.6568 15.3425C13.6372 15.3589 13.6124 15.3677 13.5869 15.3673H13.5696L13.2989 15.3241C13.2989 15.3328 13.3075 15.3366 13.3114 15.3453C13.3414 15.3981 13.387 15.4403 13.4419 15.4662L15.0989 15.4921C15.169 15.424 15.3427 15.2531 15.5223 15.0736C15.3672 15.0159 15.2312 14.9162 15.1295 14.7856C15.0278 14.6551 14.9643 14.4989 14.9463 14.3344C14.7393 14.2562 14.5703 14.1015 14.4739 13.9024C14.3962 13.718 14.382 13.513 14.4336 13.3197C14.1723 13.2171 13.9365 13.0589 13.7424 12.856H11.2464C11.3652 13.1447 11.4322 13.4522 11.4442 13.7641L11.4423 16.9571Z" fill="#FFE60D"/>
<path d="M13.7232 18.3357C13.7137 18.3349 13.7041 18.336 13.695 18.339C13.6859 18.3419 13.6774 18.3467 13.6702 18.353C13.663 18.3592 13.657 18.3669 13.6528 18.3754C13.6485 18.384 13.646 18.3933 13.6454 18.4029C13.6445 18.4126 13.6456 18.4224 13.6486 18.4317C13.6517 18.441 13.6566 18.4495 13.6631 18.4568C13.6695 18.4641 13.6775 18.47 13.6863 18.4741C13.6952 18.4782 13.7048 18.4804 13.7146 18.4806C13.7241 18.4812 13.7336 18.4799 13.7426 18.4768C13.7516 18.4737 13.7599 18.4688 13.7671 18.4625C13.7742 18.4561 13.78 18.4485 13.7842 18.4399C13.7883 18.4313 13.7908 18.422 13.7914 18.4125C13.7919 18.403 13.7906 18.3934 13.7875 18.3844C13.7844 18.3754 13.7795 18.3671 13.7732 18.36C13.7668 18.3528 13.7592 18.347 13.7506 18.3428C13.742 18.3387 13.7327 18.3362 13.7232 18.3357Z" fill="#231F20"/>
<path d="M18.552 23.1933L18.1421 23.0358L18.2553 22.6115L18.3801 22.1497C17.8212 22.4363 17.2357 22.6678 16.632 22.8409C16.344 22.9245 16.1213 22.9619 16.1213 22.9619V23.2768C15.7571 23.3363 15.3891 23.3684 15.0201 23.3728H14.9885C14.6195 23.3685 14.2515 23.3364 13.8873 23.2768V22.9619C13.8873 22.9619 13.6665 22.9235 13.3766 22.8409C12.7722 22.6683 12.1861 22.4371 11.6265 22.1507L11.7494 22.6125L11.8646 23.0368L11.448 23.1933L10.991 23.3642C11.5142 23.6166 12.239 23.9843 12.9024 24.1657L12.7459 24.5929C12.7459 24.5929 13.5878 24.9769 14.9894 24.9769H15.0086C16.4121 24.9769 17.2521 24.5929 17.2521 24.5929L17.0947 24.1657C17.7581 23.9843 18.4848 23.6166 19.0051 23.3642L18.552 23.1933ZM11.4797 23.392L12.1517 23.1683L11.952 22.5174C12.3866 22.7342 12.8384 22.9147 13.3027 23.0569L12.984 23.9517C12.4667 23.8147 11.9641 23.6272 11.4835 23.392H11.4797ZM15 24.7562C14.3434 24.7502 13.6904 24.6579 13.0579 24.4816L13.464 23.3987C13.9629 23.5245 14.4749 23.5906 14.9894 23.5955H15.0211C15.5356 23.5904 16.0476 23.5244 16.5465 23.3987L16.9459 24.4826C16.3121 24.6589 15.6578 24.7509 15 24.7562ZM17.016 23.9517L16.6905 23.0569C17.1549 22.9147 17.6067 22.7342 18.0413 22.5174L17.8502 23.1654L18.5222 23.3891C18.0417 23.6246 17.5391 23.8121 17.0217 23.9488" fill="#231F20"/>
<path d="M15 6.27905C15.8352 6.27905 16.5034 6.55553 16.872 6.85505C16.9559 6.41546 17.1185 5.99463 17.352 5.61281L16.68 5.68961L16.3277 4.94177L15.6557 5.29025L15 4.63745L14.3462 5.28545L13.6685 4.93697L13.3171 5.68481L12.6451 5.60801C12.8787 5.98974 13.0414 6.41061 13.1251 6.85025C13.4966 6.55553 14.1629 6.27425 14.9962 6.27425L15 6.27905ZM13.2845 5.94209L13.4707 5.96129L13.5514 5.79137L13.7866 5.28833L14.232 5.51969L14.401 5.60609L14.5354 5.47265L15.0058 5.00609L15.4771 5.47265L15.6125 5.60609L15.7814 5.51969L16.2154 5.29409L16.4534 5.79713L16.5322 5.96705L16.7184 5.94785L16.897 5.92673C16.8249 6.09033 16.7633 6.25835 16.7126 6.42977C16.1846 6.15949 15.5999 6.01854 15.0067 6.01854C14.4135 6.01854 13.8288 6.15949 13.3008 6.42977C13.2498 6.25846 13.1882 6.09046 13.1165 5.92673L13.2845 5.94209Z" fill="#231F20"/>
<path d="M24.7987 15.0352C25.8787 15.0352 26.2387 13.937 26.255 13.8899L26.376 13.5059L25.9709 13.5184C25.5489 13.5041 25.1352 13.3978 24.7586 13.207C24.382 13.0161 24.0517 12.7453 23.7907 12.4134L23.711 12.3174C23.159 11.6157 22.6358 10.9475 21.695 10.6432C21.7323 10.6104 21.7721 10.5805 21.8141 10.5539C22.3104 10.2275 22.5994 9.83008 22.6723 9.37024C22.7789 8.67712 22.3363 8.12224 22.3171 8.10208L22.0166 7.73056L21.8246 8.1712C21.8122 8.19904 21.4963 8.90464 20.832 8.90464H20.7821L20.6506 8.89696C20.6668 8.66476 20.6322 8.43181 20.5494 8.2143C20.4665 7.9968 20.3372 7.79995 20.1706 7.63744C19.9719 7.43504 19.7346 7.27472 19.4727 7.16603C19.2108 7.05734 18.9296 7.00251 18.6461 7.0048C18.54 7.00445 18.4341 7.01248 18.3293 7.0288L17.8752 7.11904L18.168 7.48192C18.3878 7.76992 18.5866 8.29216 18.3504 8.56576C18.2369 8.66427 18.1069 8.74195 17.9664 8.7952C17.6611 8.93536 17.2426 9.13216 17.2426 9.63136C17.2426 9.95392 17.4931 10.2918 17.9472 10.5789C19.2912 11.4246 20.1216 12.3069 20.4797 13.2813C21.0336 14.7798 20.3107 15.6342 19.608 16.0845L19.2931 16.287L19.5686 16.5405C19.8147 16.7508 20.1192 16.8808 20.4413 16.913C20.5373 16.9187 20.6256 16.9245 20.7101 16.9245C20.9852 16.9257 21.2589 16.8859 21.5222 16.8064C21.4563 16.9217 21.3795 17.0303 21.2928 17.1309C20.8915 17.5955 20.3971 17.8029 19.6877 17.8192H19.4237L19.4035 18.0842C19.4025 18.2668 19.4417 18.4475 19.5181 18.6133C19.5946 18.7792 19.7065 18.9263 19.8461 19.0442C19.9204 19.1096 20.0039 19.1639 20.0938 19.2054C19.7789 19.4934 19.4582 19.983 19.3968 20.8298C19.344 21.5363 19.176 21.7974 19.1741 21.8003L18.8861 22.2458L19.4131 22.2525C20.2842 22.2525 20.9507 22.0138 21.4128 21.5363C21.6515 21.2862 21.8298 20.9847 21.9341 20.655C22.1077 20.8029 22.3146 20.9067 22.537 20.9574C22.6412 20.9812 22.7478 20.9928 22.8547 20.992C23.0148 20.9911 23.1742 20.9718 23.3299 20.9344L23.6659 20.8451L23.5171 20.5312C23.5066 20.5062 23.2291 19.8755 23.5277 18.976C23.6376 18.6486 23.7142 18.3108 23.7562 17.968C24.0235 18.1045 24.32 18.174 24.6202 18.1706C24.8614 18.1741 25.0996 18.1165 25.3124 18.003C25.5253 17.8895 25.706 17.7239 25.8374 17.5216L26.0016 17.2336L25.6963 17.1174C24.7037 16.7056 24.4838 15.5978 24.4397 14.9987C24.5412 15.0195 24.6443 15.0317 24.7478 15.0352H24.7987ZM25.5859 17.3814C25.4815 17.5398 25.3387 17.6692 25.1709 17.7577C25.003 17.8461 24.8156 17.8907 24.6259 17.8874H24.6173C23.8166 17.8874 23.4941 17.3939 23.4941 17.3939C23.5057 17.9021 23.4251 18.4083 23.256 18.8877C22.9085 19.9216 23.256 20.6598 23.256 20.6598C23.1244 20.6925 22.9894 20.7096 22.8538 20.7107C22.7697 20.7116 22.6858 20.702 22.6042 20.6819C22.411 20.6358 22.2328 20.5411 22.0866 20.4066C21.9404 20.2722 21.831 20.1026 21.769 19.9139C21.769 19.9139 21.8304 21.9702 19.4323 21.9702H19.416C19.416 21.9702 19.6272 21.6822 19.6896 20.8557C19.8038 19.3293 20.8368 19.12 20.8368 19.12C20.8368 19.12 20.2858 19.0509 20.0467 18.832C19.94 18.7423 19.8537 18.6308 19.7937 18.5049C19.7338 18.3791 19.7016 18.2418 19.6992 18.1024C20.543 18.0909 21.096 17.8038 21.5165 17.3162C21.7881 17.0046 21.9714 16.6261 22.0474 16.2198C22.0474 16.2198 21.5933 16.6374 20.7158 16.6374C20.639 16.6374 20.5565 16.6374 20.472 16.625C20.2134 16.5989 19.9687 16.4951 19.7702 16.3274C20.6832 15.7408 21.3235 14.7174 20.76 13.1814C20.305 11.9488 19.2115 11.0272 18.1104 10.3341C17.7446 10.1056 17.5402 9.85408 17.5402 9.63232C17.5402 9.1168 18.2736 9.10048 18.5731 8.75488C18.9197 8.35264 18.7027 7.69888 18.4022 7.3072C18.4885 7.29224 18.5759 7.28517 18.6634 7.28608C18.9084 7.28344 19.1513 7.33057 19.3776 7.42463C19.6038 7.51869 19.8086 7.65772 19.9795 7.83328C20.5786 8.45248 20.3299 9.12736 20.3299 9.12736L20.4902 9.15904C20.5853 9.17608 20.6816 9.18571 20.7782 9.18784H20.8426C21.7123 9.18784 22.1011 8.27872 22.1011 8.27872C22.1011 8.27872 23.0256 9.41536 21.6643 10.3072C21.4301 10.4598 21.3264 10.601 21.3542 10.7517L21.3754 10.8477L21.4714 10.865C22.4573 11.1328 22.9574 11.8134 23.567 12.5872C23.8546 12.9521 24.2183 13.2499 24.6328 13.4596C25.0474 13.6694 25.5027 13.7861 25.967 13.8016H25.9843C25.9843 13.8016 25.6858 14.7453 24.8045 14.7453H24.7622C24.5463 14.7475 24.334 14.6889 24.1498 14.5763C24.1498 14.5763 23.9923 16.7181 25.5898 17.3814" fill="#231F20"/>
<path d="M22.9008 10.7555C23.303 10.9696 23.5382 11.2576 23.7437 11.513C23.9491 11.7683 24.1373 12.0016 24.4378 12.1005C24.5457 12.1368 24.6589 12.155 24.7728 12.1543C25.223 12.1543 25.6762 11.8787 25.847 11.4967L26.0198 11.1127L25.6022 11.0877C25.5821 11.0877 25.0454 11.0378 24.4502 10.4272C24.34 10.3078 24.2064 10.2121 24.0579 10.1461C23.9093 10.08 23.7488 10.045 23.5862 10.0432C23.3323 10.0482 23.0848 10.1244 22.872 10.2631L22.488 10.5338L22.9008 10.7555ZM23.5853 10.3351C23.7096 10.3362 23.8322 10.3633 23.9455 10.4145C24.0587 10.4658 24.16 10.5401 24.2429 10.6327C24.9389 11.3392 25.5869 11.3786 25.5869 11.3786C25.5077 11.5253 25.3905 11.648 25.2476 11.734C25.1048 11.8199 24.9414 11.8659 24.7747 11.8672C24.6914 11.8676 24.6087 11.854 24.5299 11.8269C24.0499 11.6656 23.88 10.9475 23.039 10.5002C23.2025 10.3952 23.392 10.338 23.5862 10.3351" fill="#231F20"/>
<path d="M23.0909 14.5706V14.585C22.849 12.6295 21.4282 11.2173 19.848 10.361C19.7021 10.2823 19.5667 10.216 19.4362 10.1527C19.9162 10.2275 20.6918 10.2362 21.2899 9.71777C21.2899 9.71777 20.375 10.3898 18.5002 9.77921C19.0186 10.1095 20.0266 10.5895 20.952 11.3575C23.256 13.3792 21.6067 15.352 21.6067 15.352C22.4333 14.488 22.4707 13.5645 22.225 12.8099C22.7124 13.6187 22.9465 14.5549 22.897 15.4979C22.8336 17.0522 21.9792 18.3962 21.0806 19.4762C20.8122 19.817 20.6307 20.2179 20.5517 20.6445C20.7022 20.2221 20.9301 19.8314 21.2237 19.4925C22.1837 18.3645 23.0102 17.1933 23.1187 15.5056C23.2147 15.8119 23.6285 16.6634 24.2794 16.984C24.2794 16.984 23.4614 16.4915 23.0938 14.5706" fill="#231F20"/>
<path d="M10.8269 21.8051C10.8269 21.8051 10.6589 21.5411 10.6051 20.8345C10.5427 19.9878 10.2211 19.4905 9.90623 19.2102C9.99623 19.1689 10.0797 19.1145 10.1539 19.0489C10.2933 18.931 10.405 18.7839 10.4813 18.618C10.5576 18.4521 10.5966 18.2715 10.5955 18.0889L10.5773 17.824H10.3114C9.60287 17.8125 9.10847 17.6013 8.70719 17.1357C8.62093 17.0348 8.54412 16.9261 8.47775 16.8112C8.74096 16.8894 9.01437 16.9279 9.28895 16.9254C9.37439 16.9254 9.46463 16.9206 9.55871 16.9139C9.88106 16.8817 10.1859 16.7517 10.4323 16.5414L10.7088 16.288L10.392 16.0845C9.68735 15.6342 8.96639 14.7798 9.52031 13.2813C9.87839 12.3069 10.7069 11.4246 12.0538 10.5789C12.5078 10.2909 12.7565 9.9539 12.7565 9.63134C12.7565 9.13214 12.3398 8.93534 12.0336 8.79518C11.893 8.7421 11.763 8.66441 11.6496 8.56574C11.4125 8.29118 11.6122 7.76606 11.832 7.4819L12.12 7.1123L11.664 7.02206C11.5595 7.0057 11.4539 6.99768 11.3482 6.99806C11.0649 6.99564 10.784 7.05043 10.5224 7.15913C10.2607 7.26784 10.0238 7.42823 9.82559 7.6307C9.65916 7.79337 9.53004 7.99024 9.44716 8.20771C9.36428 8.42517 9.32963 8.65805 9.34559 8.89022L9.21407 8.8979H9.16511C8.50079 8.89886 8.18399 8.18942 8.17343 8.16446L7.98143 7.72382L7.68287 8.09342C7.66559 8.1155 7.22207 8.66942 7.33055 9.36158C7.40159 9.82238 7.69151 10.2189 8.18783 10.5453C8.22993 10.5717 8.26974 10.6015 8.30687 10.6345C7.36991 10.9389 6.84671 11.607 6.29087 12.3088L6.21119 12.4048C5.95021 12.7366 5.61987 13.0075 5.24329 13.1983C4.86671 13.3892 4.45298 13.4955 4.03103 13.5097L3.62399 13.4973L3.74783 13.8813C3.76223 13.9283 4.12223 15.0265 5.20319 15.0265H5.25503C5.35858 15.0228 5.46165 15.0106 5.56319 14.9901C5.52191 15.5968 5.30399 16.7037 4.30847 17.1174L4.00511 17.2432L4.16927 17.5312C4.30184 17.7324 4.48314 17.8967 4.69631 18.009C4.90948 18.1213 5.14758 18.1779 5.38847 18.1734C5.68863 18.1769 5.98512 18.1073 6.25247 17.9709C6.29453 18.3138 6.37141 18.6515 6.48191 18.9789C6.78431 19.8784 6.50303 20.5091 6.49247 20.5341L6.34271 20.848L6.67967 20.9373C6.83503 20.9746 6.99415 20.9939 7.15391 20.9949C7.2605 20.9957 7.36681 20.9841 7.47071 20.9603C7.69351 20.9099 7.90074 20.8061 8.07455 20.6579C8.17844 20.9875 8.35643 21.289 8.59487 21.5392C9.05823 22.0153 9.72479 22.2541 10.5946 22.2553L11.1226 22.2486L10.8269 21.8051ZM10.5715 21.9693C8.17151 21.9693 8.23487 19.9129 8.23487 19.9129C8.1727 20.1016 8.06332 20.2711 7.91714 20.4055C7.77096 20.54 7.59282 20.6348 7.39967 20.6809C7.31836 20.7011 7.2348 20.7108 7.15103 20.7097C7.01573 20.7087 6.88104 20.6916 6.74975 20.6589C6.74975 20.6589 7.09823 19.9206 6.74975 18.8867C6.57993 18.4077 6.49829 17.902 6.50879 17.3939C6.50879 17.3939 6.18719 17.8854 5.38559 17.8854H5.37791C5.18825 17.8887 5.00083 17.844 4.83302 17.7556C4.6652 17.6672 4.52242 17.5378 4.41791 17.3795C6.01535 16.7161 5.85791 14.5744 5.85791 14.5744C5.67363 14.687 5.46139 14.7455 5.24543 14.7433H5.20799C4.32671 14.7433 4.02815 13.7997 4.02815 13.7997H4.04639C4.51076 13.7843 4.96616 13.6677 5.38073 13.458C5.7953 13.2482 6.15901 12.9503 6.44639 12.5853C7.05599 11.8115 7.55615 11.1309 8.54111 10.863L8.63711 10.8457L8.65823 10.7497C8.68511 10.599 8.58239 10.4617 8.34815 10.3053C6.98687 9.41438 7.91135 8.27678 7.91135 8.27678C7.91135 8.27678 8.29535 9.1859 9.16991 9.1859H9.23327C9.32989 9.18328 9.42616 9.17333 9.52127 9.15614L9.68159 9.12446C9.68159 9.12446 9.43295 8.45246 10.033 7.83038C10.2038 7.65494 10.4084 7.51598 10.6344 7.42193C10.8605 7.32787 11.1033 7.28067 11.3482 7.28318C11.4353 7.28195 11.5224 7.2887 11.6083 7.30334C11.3088 7.69598 11.0909 8.34878 11.4384 8.75102C11.7389 9.09662 12.4704 9.1139 12.4704 9.62846C12.4704 9.84734 12.2669 10.1017 11.9002 10.3302C10.7981 11.0243 9.70559 11.9449 9.25055 13.1776C8.68319 14.7136 9.32351 15.7379 10.2374 16.3235C10.0382 16.4914 9.79295 16.5951 9.53375 16.6211C9.44927 16.6297 9.36767 16.6336 9.28895 16.6336C8.41247 16.6336 7.95935 16.2227 7.95935 16.2227C8.03545 16.6285 8.218 17.0069 8.48831 17.319C8.91167 17.8057 9.46463 18.0928 10.3123 18.1053C10.3101 18.2446 10.2781 18.3818 10.2183 18.5077C10.1585 18.6336 10.0724 18.7451 9.96575 18.8349C9.72671 19.0489 9.17471 19.1229 9.17471 19.1229C9.17471 19.1229 10.2 19.3254 10.3181 20.8557C10.3795 21.6822 10.5898 21.9702 10.5898 21.9702L10.5715 21.9693Z" fill="#231F20"/>
<path d="M5.23104 12.1552C5.34524 12.1559 5.45877 12.1378 5.56704 12.1014C5.86848 12.0054 6.05952 11.7626 6.26208 11.513C6.46464 11.2634 6.7008 10.9706 7.104 10.7555L7.51872 10.5338L7.13472 10.263C6.92205 10.1262 6.67527 10.0517 6.4224 10.048C6.25983 10.0498 6.09935 10.0848 5.95078 10.1509C5.80221 10.2169 5.66869 10.3126 5.5584 10.432C4.96032 11.0426 4.42464 11.0915 4.4064 11.0925L3.9888 11.1174L4.16064 11.5014C4.33248 11.8854 4.78464 12.159 5.23488 12.159L5.23104 12.1552ZM5.76576 10.6374C5.84888 10.5449 5.95035 10.4706 6.06373 10.4194C6.17711 10.3681 6.29991 10.341 6.42432 10.3398C6.61819 10.3432 6.80732 10.4003 6.97056 10.505C6.13056 10.9523 5.95776 11.6704 5.47776 11.8326C5.39939 11.8599 5.31691 11.8736 5.23392 11.873C5.0673 11.8718 4.90406 11.8258 4.76133 11.7399C4.61859 11.6539 4.50164 11.5311 4.42272 11.3843C4.42272 11.3843 5.06976 11.345 5.76672 10.6384" fill="#231F20"/>
<path d="M7.11553 15.4989C7.06494 14.5558 7.29908 13.6192 7.78753 12.8109C7.54465 13.5654 7.57729 14.4899 8.40577 15.3539C8.40577 15.3539 6.75937 13.3811 9.06145 11.3594C9.98209 10.5914 10.9891 10.1114 11.5075 9.77824C9.63361 10.3898 8.72353 9.7168 8.72353 9.7168C9.32161 10.2352 10.0963 10.2266 10.5773 10.1517C10.4477 10.215 10.3104 10.2813 10.1654 10.36C8.58433 11.2182 7.16545 12.6304 6.92161 14.584V14.5686C6.55489 16.4886 5.73697 16.9821 5.73697 16.9821C6.38689 16.6614 6.79297 15.8099 6.89665 15.5037C7.00513 17.1914 7.82881 18.3626 8.79169 19.4906C9.0847 19.8299 9.31252 20.2205 9.46369 20.6426C9.38388 20.2157 9.20134 19.8147 8.93185 19.4742C8.03425 18.3942 7.18081 17.0502 7.11841 15.496" fill="#231F20"/>
<path d="M14.4615 11.5417V11.9257C14.5959 11.7625 14.8531 11.7961 14.8531 11.7961V12.3549C14.8531 12.3549 14.8445 12.6304 14.7466 12.7485H15.3063C15.2103 12.6294 15.1997 12.3549 15.1997 12.3549V11.7961C15.1997 11.7961 15.4589 11.7625 15.5914 11.9257V11.5417H14.4615Z" fill="#231F20"/>
<path d="M14.2215 9.24545C14.3059 9.31928 14.4036 9.37631 14.5095 9.41345L14.5795 9.44609V9.08129L13.9219 8.80481C13.9219 8.80481 13.9277 9.01601 14.2234 9.24641" fill="#231F20"/>
<path d="M15.7843 9.24543C16.0809 9.01599 16.0867 8.80383 16.0867 8.80383L15.4291 9.08031V9.43743L15.4982 9.40479C15.6041 9.3678 15.7019 9.31076 15.7862 9.23679" fill="#231F20"/>
<path d="M16.968 7.75455C16.968 7.20063 16.0349 6.69855 15.0058 6.69855H15C13.9709 6.69855 13.0378 7.19679 13.0378 7.75455L13.0579 7.89087L13.4688 10.2505L13.056 10.4905L11.9875 11.1145C11.9875 11.1145 11.7475 11.2374 11.6352 11.3142C11.2282 11.5965 11.1418 12.0093 11.3779 12.1782C11.4068 11.9828 11.5064 11.8048 11.6579 11.6781C11.8095 11.5514 12.0023 11.4847 12.1997 11.4909C12.5578 11.4909 12.8314 11.6761 13.0512 11.9526C13.1097 12.0244 13.1635 12.0997 13.2125 12.1782C13.2739 12.28 13.3363 12.3702 13.3978 12.4547H10.6502C10.8528 12.8617 11.0448 13.2918 11.0448 13.7603V19.8515C11.0448 21.3261 12.1786 22.0297 13.4054 22.0297C14.353 22.0297 14.4806 21.9865 15.0038 22.5097C15.5242 21.9885 15.6518 22.0297 16.6013 22.0297C17.8282 22.0297 18.961 21.3261 18.961 19.8515V13.7574C18.961 13.2889 19.153 12.8589 19.3565 12.4518H16.6022C16.6637 12.3664 16.7251 12.2771 16.7875 12.1753C16.8369 12.0973 16.8904 12.022 16.9478 11.9497C17.1696 11.6713 17.4422 11.488 17.8013 11.488C17.9986 11.4823 18.1912 11.5491 18.3426 11.6757C18.494 11.8024 18.5938 11.9801 18.623 12.1753C18.8592 12.0054 18.7738 11.5926 18.3648 11.3113C18.2554 11.2355 18.0144 11.1117 18.0144 11.1117L16.9478 10.4934L16.537 10.2534L16.9478 7.89375L16.968 7.75455ZM13.4419 8.02815L14.8877 8.51871V10.7901L13.823 10.2294L13.4419 8.02815ZM13.7414 12.8512C13.9354 13.0541 14.1713 13.2123 14.4326 13.3149C14.381 13.5082 14.3952 13.7132 14.473 13.8976C14.5695 14.0964 14.7385 14.2506 14.9453 14.3286C14.9639 14.4936 15.0281 14.6502 15.1306 14.7808C15.2332 14.9113 15.3702 15.0107 15.5261 15.0678C15.3466 15.2483 15.1728 15.4182 15.1027 15.4873L13.4458 15.4614C13.3908 15.4355 13.3453 15.3932 13.3152 15.3405C13.3152 15.3318 13.3066 15.328 13.3027 15.3193L13.5725 15.3625H13.5898C13.6153 15.3629 13.64 15.3541 13.6596 15.3377C13.6792 15.3213 13.6922 15.2984 13.6963 15.2733C13.7008 15.245 13.6939 15.2162 13.6772 15.193C13.6604 15.1698 13.6352 15.1541 13.607 15.1494L13.272 15.1014L13.6406 13.8265L13.2941 13.0854L12.7344 13.6777L12.696 15.0054L12.3197 14.9459C12.3056 14.9436 12.2912 14.9441 12.2773 14.9474C12.2635 14.9507 12.2504 14.9567 12.2389 14.9651C12.2273 14.9735 12.2176 14.9841 12.2102 14.9963C12.2028 15.0085 12.1979 15.022 12.1958 15.0361C12.1917 15.0645 12.1988 15.0933 12.2157 15.1165C12.2325 15.1396 12.2578 15.1553 12.2861 15.16L12.4435 15.184C12.3869 15.2157 12.3475 15.2416 12.3475 15.2454L12.3158 15.2675L12.3072 15.3069C12.2725 15.4712 12.2862 15.642 12.3465 15.7987C12.4068 15.9555 12.5112 16.0914 12.647 16.1901L12.6394 16.2371C12.6305 16.2931 12.644 16.3503 12.6771 16.3963C12.7102 16.4423 12.7601 16.4734 12.816 16.4829C12.8275 16.4839 12.8391 16.4839 12.8506 16.4829C12.8984 16.4825 12.9447 16.4661 12.982 16.4361C13.0193 16.4061 13.0454 16.3644 13.056 16.3177C13.1264 16.3261 13.1973 16.3302 13.2682 16.3302H13.3123L15.4858 16.7229L15.5232 16.6979C15.696 16.5769 16.3565 16.096 16.5734 15.9366C16.6358 15.9911 16.7052 16.037 16.7798 16.0729C16.7315 16.2247 16.7248 16.3866 16.7604 16.5418C16.796 16.697 16.8727 16.8398 16.9824 16.9552H11.4432V13.7574C11.4312 13.4454 11.3642 13.138 11.2454 12.8493L13.7414 12.8512ZM16.4294 15.7753C16.2096 15.9376 15.6442 16.3513 15.4387 16.4934L13.464 16.1401L13.4774 16.0873C13.5116 15.9543 13.5296 15.8176 13.5312 15.6803L15.191 15.7072L15.2227 15.6745C15.2477 15.6496 15.7738 15.1408 16.0416 14.8489C16.1111 14.9365 16.1948 15.0118 16.2893 15.0717C16.2428 15.3157 16.2926 15.5683 16.4285 15.7763L16.4294 15.7753ZM13.1213 15.4345C13.1653 15.5181 13.2318 15.5876 13.3133 15.6352C13.3112 15.7559 13.2997 15.8763 13.2787 15.9952C13.273 16.023 13.2662 16.0489 13.2576 16.0749C13.249 16.1008 13.249 16.1046 13.2451 16.1152C13.1099 16.116 12.9754 16.0952 12.8467 16.0537C12.7309 15.9915 12.6369 15.8953 12.5774 15.7781C12.5178 15.6609 12.4956 15.5283 12.5136 15.3981C12.6237 15.3248 12.7505 15.2806 12.8822 15.2694C12.9348 15.2681 12.9864 15.2833 13.0298 15.313C13.0733 15.3426 13.1063 15.3851 13.1242 15.4345H13.1213ZM12.9187 15.04L12.9523 13.768L13.2403 13.4656L13.4198 13.8409L13.0666 15.0621L12.9187 15.04ZM16.4131 21.6352C16.3046 21.6352 16.2058 21.6352 16.1165 21.64L16.3517 20.9085C16.3882 20.8077 16.2029 20.6771 16.1261 20.5629C16.3075 20.6709 16.4943 20.7696 16.6858 20.8585C16.6714 20.8825 16.4131 21.6361 16.4131 21.6361V21.6352ZM17.1514 20.8048L16.9978 21.6054C16.9018 21.6189 16.7962 21.6265 16.6896 21.6304L16.8518 20.8624C16.8998 20.6339 16.2854 20.5619 15.9821 20.1126C15.8342 20.2797 15.5549 20.3296 15.2746 20.3296C15.0504 20.3263 14.827 20.3022 14.6074 20.2576C14.5696 20.251 14.5314 20.2475 14.4931 20.247C14.4473 20.2439 14.4016 20.2538 14.3612 20.2756C14.3208 20.2973 14.2873 20.33 14.2646 20.3699L14.2205 20.4448L13.3834 20.248L13.175 20.5926C13.1587 20.6162 13.1514 20.6449 13.1544 20.6734C13.1574 20.7019 13.1705 20.7285 13.1914 20.7481L13.248 20.8096C13.1938 20.9224 13.1218 21.0258 13.0349 21.1158L12.9101 20.9603C12.8141 20.8499 12.8275 20.6483 12.9302 20.4621L13.2624 19.9014L13.9718 20.0041L13.8614 19.7526C13.7136 19.4205 13.9392 18.9981 13.9632 18.7542C13.9546 18.8281 13.8874 18.8445 13.8086 18.8445C13.7299 18.8445 13.657 18.831 13.6042 18.831C13.5876 18.8296 13.5709 18.8329 13.5562 18.8406L13.3642 18.9568L13.2125 18.8224C13.2008 18.8013 13.1964 18.777 13.2 18.7532C13.2037 18.7294 13.2151 18.7074 13.2326 18.6909L13.583 18.2973L13.1683 17.8173L13.7443 18.1053L13.9219 17.8902C13.9709 17.9382 13.9498 18.063 13.9498 18.063C14.1302 18.063 14.639 18.351 14.6659 19.0038C14.6659 19.024 14.6659 19.0461 14.6659 19.0681L14.6794 19.0893C14.7373 19.1851 14.8309 19.2541 14.9395 19.2813L15.7421 19.3609C15.8304 19.3609 16.0051 19.2573 16.2298 19.2573C16.3732 19.2584 16.5132 19.3011 16.633 19.3801C16.6895 19.341 16.7562 19.319 16.825 19.3168H16.8528C17.2128 19.3168 17.3616 19.6422 17.5555 19.912C17.7005 20.1174 17.8954 20.4237 17.8954 20.4237C17.8677 20.4644 17.8305 20.4978 17.787 20.5209C17.7435 20.5439 17.695 20.5561 17.6458 20.5561C17.6109 20.5561 17.5762 20.5526 17.5421 20.5456C17.1581 20.4745 17.1005 19.6816 16.8806 19.6182C16.8692 19.6168 16.8576 19.6168 16.8461 19.6182C16.825 19.6188 16.8045 19.625 16.7866 19.6362C16.7688 19.6473 16.7542 19.663 16.7443 19.6816C16.8403 19.9523 16.7856 20.0656 16.895 20.2701C16.9732 20.3979 17.0703 20.5131 17.183 20.6118C17.183 20.6118 17.1667 20.7289 17.1494 20.8163L17.1514 20.8048ZM12.8381 20.0589L12.8755 20.1549C12.8506 20.2355 12.5731 20.3469 12.5731 20.3469L12.5136 20.2153C12.4757 20.1251 12.4692 20.0248 12.4952 19.9305C12.5211 19.8361 12.578 19.7532 12.6566 19.695L13.1069 19.4205L13.5869 19.5222C13.5836 19.6172 13.6124 19.7105 13.6685 19.7872L13.1683 19.6912L12.8688 19.8985C12.8457 19.9177 12.8302 19.9445 12.8251 19.974C12.8199 20.0036 12.8256 20.034 12.841 20.0598L12.8381 20.0589ZM17.2272 21.5737L17.3645 20.8566C17.3722 20.8144 17.3808 20.7606 17.3866 20.7241C17.4267 20.741 17.4685 20.7536 17.5114 20.7616C17.5582 20.7708 17.6057 20.7756 17.6534 20.776C17.7335 20.7759 17.8124 20.7574 17.8841 20.7219C17.9559 20.6865 18.0185 20.635 18.0672 20.5715L18.1728 20.4486L18.0864 20.3142C18.0787 20.3008 17.8877 19.9993 17.7408 19.792C17.712 19.7517 17.6842 19.7113 17.6563 19.6672C17.4893 19.4176 17.28 19.1046 16.8614 19.1046H16.824C16.7636 19.1079 16.7041 19.1202 16.6474 19.1411C16.5198 19.0793 16.3801 19.0465 16.2384 19.0451C16.096 19.0485 15.9551 19.0757 15.8218 19.1257C15.7939 19.1344 15.769 19.143 15.7498 19.1469L14.9664 19.0701C14.9343 19.0548 14.9066 19.0317 14.8858 19.0029L15.0557 18.9347C15.0077 18.3702 14.4653 18.0227 14.1638 17.9046C14.1505 17.8441 14.1198 17.7887 14.0755 17.7453L13.9075 17.5859L13.752 17.751L13.679 17.8413L12.5818 17.391L13.295 18.2867L13.0138 18.7139C13 18.7289 12.9894 18.7466 12.9825 18.7657C12.9756 18.7849 12.9726 18.8052 12.9735 18.8255C12.9745 18.8459 12.9795 18.8658 12.9882 18.8842C12.9969 18.9026 13.0092 18.9191 13.0243 18.9328L13.3123 19.1334L13.6138 19.0211C13.6237 19.0206 13.6336 19.0206 13.6435 19.0211C13.6291 19.0672 13.6099 19.2467 13.5974 19.2966L13.08 19.1968L12.5299 19.5078C12.4097 19.5947 12.3228 19.72 12.2835 19.8629C12.2443 20.0059 12.255 20.158 12.3139 20.2941L12.3754 20.4275L12.4618 20.6195L12.6538 20.5398H12.6605C12.6231 20.6336 12.6111 20.7356 12.6256 20.8355C12.6401 20.9354 12.6806 21.0298 12.743 21.1091L12.8592 21.2454L13.0147 21.4374L13.1856 21.2541C13.2971 21.1441 13.3864 21.0138 13.4486 20.8701L13.4861 20.751L13.4026 20.655L13.3891 20.6387L13.4851 20.4841L14.1686 20.6454L14.3222 20.6809L14.4038 20.5456L14.448 20.4726C14.4566 20.4573 14.4586 20.4544 14.4902 20.4544C14.5154 20.4544 14.5406 20.4573 14.5651 20.463C14.7979 20.509 15.0344 20.5334 15.2717 20.536C15.4315 20.5448 15.5917 20.5256 15.745 20.4793C15.745 20.4793 16.1117 20.896 16.129 20.9123L15.9043 21.6054L15.8947 21.6467C15.4694 21.6813 15.2621 21.7744 15.0115 22.0249C14.6477 21.664 14.3904 21.6265 13.4131 21.6265C12.2429 21.6265 11.4499 20.9411 11.4499 19.8448V17.1664H18.5712V19.8448C18.5712 20.7328 18.0499 21.3529 17.2272 21.5545V21.5737ZM18.7632 12.8454C18.6432 13.1338 18.5759 13.4414 18.5645 13.7536V15.7523C18.1469 15.6822 18.0979 15.2329 18.096 15.2128L18.0883 15.1168L17.9981 15.1091C17.8449 15.096 17.7016 15.0278 17.5949 14.9171C17.4655 14.7668 17.3931 14.5759 17.3904 14.3776C17.3258 14.4793 17.2943 14.5984 17.3002 14.7188C17.306 14.8391 17.3489 14.9546 17.423 15.0496C17.5387 15.1963 17.7072 15.2917 17.8925 15.3155C17.9183 15.4828 17.9978 15.6373 18.119 15.7555C18.2402 15.8738 18.3966 15.9495 18.5645 15.9712V16.9494H17.3318C17.1758 16.8697 17.0561 16.7333 16.9974 16.5682C16.9387 16.4031 16.9453 16.2218 17.016 16.0614L17.064 15.9558L16.9555 15.9145C16.3402 15.6861 16.5101 15.0726 16.5178 15.0505L16.5427 14.9613L16.4592 14.9219C15.9514 14.6867 16.0195 14.0521 16.0272 14.0253C15.8707 14.152 15.8141 14.4093 15.9226 14.6637C15.864 14.7299 15.7862 14.8105 15.7008 14.8989C15.5527 14.8666 15.4194 14.7865 15.3214 14.671C15.2234 14.5554 15.1661 14.4108 15.1584 14.2595V14.1846L15.0893 14.1577C15.0004 14.1314 14.9178 14.0874 14.8464 14.0283C14.7749 13.9693 14.7162 13.8964 14.6736 13.8141C14.6164 13.6769 14.6063 13.5246 14.6448 13.3811C14.7033 13.3946 14.7626 13.4039 14.8224 13.4089C14.8824 13.4152 14.9426 13.4184 15.0029 13.4185H15.0115C15.0718 13.4184 15.132 13.4152 15.192 13.4089C15.5203 13.3763 15.887 13.2361 16.2691 12.856L18.7632 12.8454ZM16.8432 10.8294L17.3299 11.1117H17.3366L17.4586 11.1827C17.2064 11.2515 16.9778 11.3875 16.7971 11.5763L16.7779 11.5955C16.7376 11.6387 16.6973 11.6848 16.6589 11.7328L16.6358 11.7616C16.5981 11.8102 16.5622 11.8601 16.5283 11.9113L16.5101 11.9373C16.4698 11.9977 16.4314 12.0621 16.393 12.1293C16.0464 12.7264 15.4934 13.0835 15.0019 13.0845C14.5104 13.0854 13.9574 12.7264 13.6118 12.1293C13.5744 12.0649 13.536 12.0016 13.4957 11.9373L13.4736 11.9046C13.44 11.8547 13.4054 11.8086 13.3709 11.7606C13.3622 11.7481 13.3536 11.7385 13.345 11.728C13.3075 11.6819 13.2691 11.632 13.2298 11.5936C13.2211 11.5869 13.2163 11.5792 13.2086 11.5725C13.028 11.3838 12.7993 11.248 12.5472 11.1798L12.671 11.1088H12.6768L13.1645 10.8265L13.6646 10.5385L15 11.2729L16.344 10.5453L16.8432 10.8294ZM16.1837 10.2265L15.119 10.7872V8.51871L16.559 8.02815L16.1837 10.2265ZM15 8.26911L13.417 7.64415C13.5514 7.32543 14.1725 7.05375 15 7.05279C15.8275 7.05183 16.4496 7.32447 16.584 7.64415L15 8.26911Z" fill="#231F20"/>
</svg>
