<svg width="60" height="60" viewBox="0 0 60 60" fill="none" xmlns="http://www.w3.org/2000/svg" preserveAspectRatio="xMidYMid meet">
<rect width="30" height="30" fill="black" fill-opacity="0" transform="scale(2)"/>
<rect width="60" height="60" rx="5" fill="#05328B"/>
<rect width="22.8" height="7.2" fill="black" fill-opacity="0" transform="translate(6 22.8003) scale(2)"/>
<rect width="22.8" height="7.2" fill="black" fill-opacity="0" transform="translate(6 22.8003) scale(2)"/>
<path d="M25.768 36.9603H22.0472L24.3727 23.0489H28.0939L25.768 36.9603ZM18.9169 23.0489L15.3696 32.6172L14.9499 30.5568L14.9503 30.5575L13.6982 24.3014C13.6982 24.3014 13.5469 23.0489 11.9332 23.0489H6.06881L6 23.2844C6 23.2844 7.79334 23.6476 9.89213 24.8745L13.1248 36.9606H17.0017L22.9215 23.0489H18.9169V23.0489ZM48.1834 36.9603H51.6L48.6212 23.0485H45.6301C44.2489 23.0485 43.9125 24.0852 43.9125 24.0852L38.3631 36.9603H42.2418L43.0175 34.8939H47.7476L48.1834 36.9603ZM44.0891 32.0393L46.0441 26.8333L47.144 32.0393H44.0891ZM38.654 26.3942L39.185 23.4069C39.185 23.4069 37.5465 22.8003 35.8384 22.8003C33.9919 22.8003 29.607 23.5858 29.607 27.4057C29.607 30.9996 34.7535 31.0443 34.7535 32.9321C34.7535 34.8198 30.1373 34.4816 28.6138 33.2912L28.0606 36.4147C28.0606 36.4147 29.7221 37.2003 32.2605 37.2003C34.7997 37.2003 38.6303 35.9206 38.6303 32.4375C38.6303 28.8205 33.4376 28.4837 33.4376 26.9111C33.438 25.3382 37.0618 25.5402 38.654 26.3942V26.3942Z" fill="white"/>
<path d="M14.9503 30.4583L13.6982 24.2812C13.6982 24.2812 13.5469 23.0444 11.9332 23.0444H6.06881L6 23.277C6 23.277 8.81865 23.8384 11.5222 25.9419C14.1073 27.9525 14.9503 30.4583 14.9503 30.4583Z" fill="#E6A540"/>
</svg>
