<svg width="60" height="60" viewBox="0 0 60 60" fill="none" xmlns="http://www.w3.org/2000/svg" preserveAspectRatio="xMidYMid meet">
<rect width="30" height="30" fill="black" fill-opacity="0" transform="scale(2)"/>
<rect width="60" height="60" rx="5" fill="#036CB5"/>
<path d="M29.9144 12C32.723 12 35.3951 12.6534 37.793 13.8222C38.1691 13.9945 38.5476 14.2007 38.9225 14.4071L37.2783 15.886L34.8134 13.307L30.5661 17.0891L28.065 14.3723L20.2549 21.4216L25.2552 26.9578L23.3031 28.6767L28.2364 34.2128L26.2842 35.931L33.3409 43.8055L37.5175 39.9541L41.1502 44.0815C40.4302 44.6317 39.6424 45.183 38.787 45.6636C36.1833 47.142 33.1684 48 29.949 48C20.0486 48 12.0001 39.9211 12.0001 29.9845C11.9652 20.1152 20.0151 12 29.9144 12ZM26.6254 28.8834L30.9073 25.032L34.7446 29.3301L30.4618 33.1811L26.6254 28.8834ZM29.6749 36.3109L33.922 32.4254L37.793 36.7231L33.5109 40.5747L29.6749 36.3109ZM23.5786 21.5596L27.8593 17.7083L31.6957 22.0063L27.4136 25.8575L23.5786 21.5596ZM31.4212 19.4959L34.6071 16.6076L37.4852 19.8056L34.2993 22.728L31.4212 19.4959ZM37.1081 32.7342L40.2929 29.8458L43.1708 33.0772L39.9847 35.9674L37.1081 32.7342ZM39.9165 39.2338L43.1026 36.3448L45.9782 39.5426L42.7933 42.4646L39.9165 39.2338ZM41.2184 24.3786L43.3419 22.4528L45.2594 24.5855L43.1363 26.5106L41.2184 24.3786ZM38.478 18.0173L40.6016 16.0577L42.5206 18.2237L40.3954 20.1493L38.478 18.0173ZM43.9242 30.7405L46.0476 28.8148L48 30.9468L45.8428 32.8719L43.9242 30.7405ZM34.3675 25.9607L37.5536 23.0723L40.4302 26.2696L37.2455 29.1585L34.3675 25.9607Z" fill="white"/>
</svg>
