<svg width="36" height="50" viewBox="0 0 36 50" fill="none" xmlns="http://www.w3.org/2000/svg" preserveAspectRatio="xMidYMid meet">
<rect width="35" height="50" fill="black" fill-opacity="0" transform="translate(0.100098)"/>
<path d="M17.6001 48.4815C17.1275 47.9322 16.4525 47.1333 15.6425 46.1343C14.0147 44.1267 11.8459 41.3164 9.67919 38.1034C7.5105 34.8875 5.35616 31.2864 3.74703 27.6957C2.13197 24.0918 1.1001 20.5724 1.1001 17.5C1.1001 8.35229 8.45238 1 17.6001 1C26.6515 1 34.1001 8.356 34.1001 17.5C34.1001 20.5724 33.0682 24.0918 31.4532 27.6957C29.844 31.2864 27.6897 34.8875 25.521 38.1034C23.3542 41.3164 21.1855 44.1267 19.5577 46.1343C18.7477 47.1333 18.0727 47.9322 17.6001 48.4815Z" fill="white" stroke="#FECB17" stroke-width="2"/>
<path d="M19.2003 18.3H18.1003C16.4003 18.3 14.8003 17.1 14.8003 14C14.8003 10.8 16.3003 9.5 17.9003 9.5H19.2003V18.3ZM20.9003 8H18.0003C15.2003 8 12.8003 10.2 12.8003 14.3C12.8003 16.8 14.0003 18.7 16.0003 19.6L12.1003 26.6C12.0003 26.8 12.1003 27 12.3003 27H14.1003C14.3003 27 14.4003 26.9 14.4003 26.8L17.9003 19.9H19.2003V26.8C19.2003 26.9 19.3003 27 19.4003 27H21.0003C21.2003 27 21.2003 26.9 21.2003 26.8V8.3C21.1003 8.1 21.0003 8 20.9003 8Z" fill="#E2110F"/>
</svg>
