<svg width="36" height="50" viewBox="0 0 36 50" fill="none" xmlns="http://www.w3.org/2000/svg" preserveAspectRatio="xMidYMid meet">
<rect width="35" height="50" fill="black" fill-opacity="0" transform="translate(0.799805)"/>
<path d="M18.2998 48.4815C17.8272 47.9322 17.1522 47.1333 16.3422 46.1343C14.7144 44.1267 12.5457 41.3164 10.3789 38.1034C8.21021 34.8875 6.05586 31.2864 4.44673 27.6957C2.83168 24.0918 1.7998 20.5724 1.7998 17.5C1.7998 8.35229 9.15209 1 18.2998 1C27.4475 1 34.7998 8.35228 34.7998 17.5C34.7998 20.5724 33.7679 24.0918 32.1529 27.6957C30.5437 31.2864 28.3894 34.8875 26.2207 38.1034C24.054 41.3164 21.8852 44.1267 20.2574 46.1343C19.4474 47.1333 18.7725 47.9322 18.2998 48.4815Z" fill="white" stroke="#EE4037" stroke-width="2"/>
<rect width="22.5" height="22.3444" fill="black" fill-opacity="0" transform="translate(7.09961 6.3999)"/>
<path d="M18.3996 6.3999C11.3996 9.1999 7.09961 14.5999 7.09961 14.5999C7.59961 22.1999 11.4996 27.8999 11.4996 27.8999C17.7996 29.7999 25.3996 27.8999 25.3996 27.8999C29.5996 21.0999 29.5996 14.5999 29.5996 14.5999C25.3996 9.2999 18.3996 6.3999 18.3996 6.3999ZM24.7996 27.0999C23.8996 27.2999 21.0996 27.7999 17.8996 27.7999C15.6996 27.7999 13.7996 27.5999 11.9996 27.0999C11.2996 25.9999 8.4996 20.9999 7.9996 14.7999C8.8996 13.7999 12.6996 9.5999 18.3996 7.2999C19.7996 7.8999 25.2996 10.4999 28.7996 14.7999C28.5996 16.0999 28.0996 21.4999 24.7996 27.0999Z" fill="#EE4037"/>
<path d="M9.39941 15.3998L18.2994 19.1998L11.9994 27.0998L18.2994 22.6998L24.7994 26.9998L18.3994 19.0998L27.2994 15.2998C27.2994 15.2998 22.1994 16.0998 18.3994 16.0998C14.3994 16.1998 9.39941 15.3998 9.39941 15.3998Z" fill="#EE4037"/>
</svg>
