<?xml version="1.0" encoding="utf-8"?>
<!-- Generator: Adobe Illustrator 22.1.0, SVG Export Plug-In . SVG Version: 6.00 Build 0)  -->
<svg version="1.1" id="Capa_1" xmlns="http://www.w3.org/2000/svg" xmlns:xlink="http://www.w3.org/1999/xlink" x="0px" y="0px"
	 viewBox="0 0 300 300" style="enable-background:new 0 0 300 300;" xml:space="preserve">
<style type="text/css">
	.st0{fill:#F5F5F5;}
</style>
<g>
	<g>
		<path class="st0" d="M150,135c-12.4,0-22.5,10.1-22.5,22.5c0,12.4,10.1,22.5,22.5,22.5c12.4,0,22.5-10.1,22.5-22.5
			C172.5,145.1,162.4,135,150,135z M210,112.5h-18c-2.5,0-5.1-1.9-5.9-4.3l-4.7-14c-0.8-2.3-3.4-4.3-5.9-4.3h-51
			c-2.5,0-5.1,1.9-5.9,4.3l-4.7,14c-0.8,2.3-3.4,4.3-5.9,4.3H90c-8.2,0-15,6.8-15,15V195c0,8.2,6.8,15,15,15h120c8.2,0,15-6.8,15-15
			v-67.5C225,119.2,218.2,112.5,210,112.5z M150,195c-20.7,0-37.5-16.8-37.5-37.5c0-20.7,16.8-37.5,37.5-37.5
			c20.7,0,37.5,16.8,37.5,37.5C187.5,178.2,170.7,195,150,195z M204.8,138c-2.9,0-5.2-2.3-5.2-5.2c0-2.9,2.4-5.2,5.2-5.2
			c2.9,0,5.2,2.4,5.2,5.2C210,135.6,207.6,138,204.8,138z"/>
	</g>
</g>
</svg>
